<?xml version="1.0" encoding="us-ascii" standalone="no"?><svg xmlns="http://www.w3.org/2000/svg" xmlns:xlink="http://www.w3.org/1999/xlink" contentStyleType="text/css" height="1783px" preserveAspectRatio="none" style="width:1807px;height:1783px;background:#FFFFFF;" version="1.1" viewBox="0 0 1807 1783" width="1807px" zoomAndPan="magnify"><defs/><g><text fill="#000000" font-family="sans-serif" font-size="14" font-weight="bold" lengthAdjust="spacing" textLength="346" x="731.75" y="29.5332">Refresh Token Rotation - UML Sequence Diagram</text><rect fill="none" height="1574.2734" style="stroke:#000000;stroke-width:1.5;" width="1790.5" x="10" y="184.9219"/><rect fill="none" height="1222.5703" style="stroke:#000000;stroke-width:1.5;" width="1770.5" x="20" y="529.625"/><rect fill="none" height="565.5156" style="stroke:#000000;stroke-width:1.5;" width="1750.5" x="30" y="1179.6797"/><line style="stroke:#181818;stroke-width:0.5;stroke-dasharray:5.0,5.0;" x1="61" x2="61" y1="121.2188" y2="1776.1953"/><line style="stroke:#181818;stroke-width:0.5;stroke-dasharray:5.0,5.0;" x1="275" x2="275" y1="121.2188" y2="1776.1953"/><line style="stroke:#181818;stroke-width:0.5;stroke-dasharray:5.0,5.0;" x1="495.5" x2="495.5" y1="121.2188" y2="1776.1953"/><line style="stroke:#181818;stroke-width:0.5;stroke-dasharray:5.0,5.0;" x1="651.5" x2="651.5" y1="121.2188" y2="1776.1953"/><line style="stroke:#181818;stroke-width:0.5;stroke-dasharray:5.0,5.0;" x1="897.5" x2="897.5" y1="121.2188" y2="1776.1953"/><line style="stroke:#181818;stroke-width:0.5;stroke-dasharray:5.0,5.0;" x1="1184" x2="1184" y1="121.2188" y2="1776.1953"/><line style="stroke:#181818;stroke-width:0.5;stroke-dasharray:5.0,5.0;" x1="1350" x2="1350" y1="121.2188" y2="1776.1953"/><line style="stroke:#181818;stroke-width:0.5;stroke-dasharray:5.0,5.0;" x1="1497" x2="1497" y1="121.2188" y2="1776.1953"/><line style="stroke:#181818;stroke-width:0.5;stroke-dasharray:5.0,5.0;" x1="1726.5" x2="1726.5" y1="121.2188" y2="1776.1953"/><text fill="#000000" font-family="sans-serif" font-size="14" lengthAdjust="spacing" textLength="36" x="40" y="118.1426">Client</text><ellipse cx="61" cy="52.1094" fill="#E2E2F0" rx="8" ry="8" style="stroke:#181818;stroke-width:0.5;"/><path d="M61,60.1094 L61,87.1094 M48,68.1094 L74,68.1094 M61,87.1094 L48,102.1094 M61,87.1094 L74,102.1094 " fill="none" style="stroke:#181818;stroke-width:0.5;"/><rect fill="#E2E2F0" height="31.6094" rx="2.5" ry="2.5" style="stroke:#181818;stroke-width:0.5;" width="126" x="212" y="88.6094"/><text fill="#000000" font-family="sans-serif" font-size="14" lengthAdjust="spacing" textLength="112" x="219" y="110.1426">RefreshController</text><rect fill="#E2E2F0" height="31.6094" rx="2.5" ry="2.5" style="stroke:#181818;stroke-width:0.5;" width="165" x="413.5" y="88.6094"/><text fill="#000000" font-family="sans-serif" font-size="14" lengthAdjust="spacing" textLength="151" x="420.5" y="110.1426">GlobalExceptionHandler</text><rect fill="#E2E2F0" height="31.6094" rx="2.5" ry="2.5" style="stroke:#181818;stroke-width:0.5;" width="127" x="588.5" y="88.6094"/><text fill="#000000" font-family="sans-serif" font-size="14" lengthAdjust="spacing" textLength="113" x="595.5" y="110.1426">ISender / MediatR</text><rect fill="#E2E2F0" height="31.6094" rx="2.5" ry="2.5" style="stroke:#181818;stroke-width:0.5;" width="153" x="821.5" y="88.6094"/><text fill="#000000" font-family="sans-serif" font-size="14" lengthAdjust="spacing" textLength="139" x="828.5" y="110.1426">RefreshTokenHandler</text><rect fill="#E2E2F0" height="31.6094" rx="2.5" ry="2.5" style="stroke:#181818;stroke-width:0.5;" width="172" x="1098" y="88.6094"/><text fill="#000000" font-family="sans-serif" font-size="14" lengthAdjust="spacing" textLength="158" x="1105" y="110.1426">IRefreshTokenGenerator</text><rect fill="#E2E2F0" height="31.6094" rx="2.5" ry="2.5" style="stroke:#181818;stroke-width:0.5;" width="141" x="1280" y="88.6094"/><text fill="#000000" font-family="sans-serif" font-size="14" lengthAdjust="spacing" textLength="127" x="1287" y="110.1426">IJwtTokenGenerator</text><rect fill="#E2E2F0" height="31.6094" rx="2.5" ry="2.5" style="stroke:#181818;stroke-width:0.5;" width="133" x="1431" y="88.6094"/><text fill="#000000" font-family="sans-serif" font-size="14" lengthAdjust="spacing" textLength="119" x="1438" y="110.1426">TutoringDbContext</text><rect fill="#E2E2F0" height="31.6094" rx="2.5" ry="2.5" style="stroke:#181818;stroke-width:0.5;" width="88" x="1682.5" y="88.6094"/><text fill="#000000" font-family="sans-serif" font-size="14" lengthAdjust="spacing" textLength="74" x="1689.5" y="110.1426">SQL Server</text><polygon fill="#181818" points="263,165.9219,273,169.9219,263,173.9219,267,169.9219" style="stroke:#181818;stroke-width:1.0;"/><line style="stroke:#181818;stroke-width:1.0;" x1="61" x2="269" y1="169.9219" y2="169.9219"/><text fill="#000000" font-family="sans-serif" font-size="13" lengthAdjust="spacing" textLength="132" x="68" y="148.7139">POST /api/auth/refresh</text><text fill="#000000" font-family="sans-serif" font-size="13" lengthAdjust="spacing" textLength="117" x="68" y="165.0654">refresh-token cookie</text><path d="M10,184.9219 L71,184.9219 L71,193.2734 L61,203.2734 L10,203.2734 L10,184.9219 " fill="#EEEEEE" style="stroke:#000000;stroke-width:1.5;"/><rect fill="none" height="1574.2734" style="stroke:#000000;stroke-width:1.5;" width="1790.5" x="10" y="184.9219"/><text fill="#000000" font-family="sans-serif" font-size="13" font-weight="bold" lengthAdjust="spacing" textLength="16" x="25" y="199.417">alt</text><text fill="#000000" font-family="sans-serif" font-size="11" font-weight="bold" lengthAdjust="spacing" textLength="93" x="86" y="198.3408">[cookie missing]</text><polygon fill="#181818" points="484,221.625,494,225.625,484,229.625,488,225.625" style="stroke:#181818;stroke-width:1.0;"/><line style="stroke:#181818;stroke-width:1.0;stroke-dasharray:2.0,2.0;" x1="275" x2="490" y1="225.625" y2="225.625"/><text fill="#000000" font-family="sans-serif" font-size="13" lengthAdjust="spacing" textLength="172" x="282" y="220.7686">InvalidRefreshTokenException</text><polygon fill="#181818" points="72,251.9766,62,255.9766,72,259.9766,68,255.9766" style="stroke:#181818;stroke-width:1.0;"/><line style="stroke:#181818;stroke-width:1.0;stroke-dasharray:2.0,2.0;" x1="66" x2="495" y1="255.9766" y2="255.9766"/><text fill="#000000" font-family="sans-serif" font-size="13" lengthAdjust="spacing" textLength="113" x="78" y="251.1201">401 ProblemDetails</text><line style="stroke:#000000;stroke-width:1.0;stroke-dasharray:2.0,2.0;" x1="10" x2="1800.5" y1="264.9766" y2="264.9766"/><text fill="#000000" font-family="sans-serif" font-size="11" font-weight="bold" lengthAdjust="spacing" textLength="92" x="15" y="276.3955">[cookie present]</text><polygon fill="#181818" points="640,298.1641,650,302.1641,640,306.1641,644,302.1641" style="stroke:#181818;stroke-width:1.0;"/><line style="stroke:#181818;stroke-width:1.0;" x1="275" x2="646" y1="302.1641" y2="302.1641"/><text fill="#000000" font-family="sans-serif" font-size="13" lengthAdjust="spacing" textLength="176" x="282" y="297.3076">Send(RefreshTokenCommand)</text><polygon fill="#181818" points="886,328.5156,896,332.5156,886,336.5156,890,332.5156" style="stroke:#181818;stroke-width:1.0;"/><line style="stroke:#181818;stroke-width:1.0;" x1="652" x2="892" y1="332.5156" y2="332.5156"/><text fill="#000000" font-family="sans-serif" font-size="13" lengthAdjust="spacing" textLength="105" x="659" y="327.6592">Handle(command)</text><polygon fill="#181818" points="1172,358.8672,1182,362.8672,1172,366.8672,1176,362.8672" style="stroke:#181818;stroke-width:1.0;"/><line style="stroke:#181818;stroke-width:1.0;" x1="898" x2="1178" y1="362.8672" y2="362.8672"/><text fill="#000000" font-family="sans-serif" font-size="13" lengthAdjust="spacing" textLength="94" x="905" y="358.0107">Hash(raw token)</text><polygon fill="#181818" points="909,389.2188,899,393.2188,909,397.2188,905,393.2188" style="stroke:#181818;stroke-width:1.0;"/><line style="stroke:#181818;stroke-width:1.0;stroke-dasharray:2.0,2.0;" x1="903" x2="1183" y1="393.2188" y2="393.2188"/><text fill="#000000" font-family="sans-serif" font-size="13" lengthAdjust="spacing" textLength="84" x="915" y="388.3623">SHA-256 hash</text><polygon fill="#181818" points="1485.5,419.5703,1495.5,423.5703,1485.5,427.5703,1489.5,423.5703" style="stroke:#181818;stroke-width:1.0;"/><line style="stroke:#181818;stroke-width:1.0;" x1="898" x2="1491.5" y1="423.5703" y2="423.5703"/><text fill="#000000" font-family="sans-serif" font-size="13" lengthAdjust="spacing" textLength="154" x="905" y="418.7139">Find refresh token by hash</text><polygon fill="#181818" points="1714.5,449.9219,1724.5,453.9219,1714.5,457.9219,1718.5,453.9219" style="stroke:#181818;stroke-width:1.0;"/><line style="stroke:#181818;stroke-width:1.0;" x1="1497.5" x2="1720.5" y1="453.9219" y2="453.9219"/><text fill="#000000" font-family="sans-serif" font-size="13" lengthAdjust="spacing" textLength="129" x="1504.5" y="449.0654">SELECT refresh token</text><polygon fill="#181818" points="1508.5,480.2734,1498.5,484.2734,1508.5,488.2734,1504.5,484.2734" style="stroke:#181818;stroke-width:1.0;"/><line style="stroke:#181818;stroke-width:1.0;stroke-dasharray:2.0,2.0;" x1="1502.5" x2="1725.5" y1="484.2734" y2="484.2734"/><text fill="#000000" font-family="sans-serif" font-size="13" lengthAdjust="spacing" textLength="72" x="1514.5" y="479.417">Row or none</text><polygon fill="#181818" points="909,510.625,899,514.625,909,518.625,905,514.625" style="stroke:#181818;stroke-width:1.0;"/><line style="stroke:#181818;stroke-width:1.0;stroke-dasharray:2.0,2.0;" x1="903" x2="1496.5" y1="514.625" y2="514.625"/><text fill="#000000" font-family="sans-serif" font-size="13" lengthAdjust="spacing" textLength="74" x="915" y="509.7686">Token or null</text><path d="M20,529.625 L81,529.625 L81,537.9766 L71,547.9766 L20,547.9766 L20,529.625 " fill="#EEEEEE" style="stroke:#000000;stroke-width:1.5;"/><rect fill="none" height="1222.5703" style="stroke:#000000;stroke-width:1.5;" width="1770.5" x="20" y="529.625"/><text fill="#000000" font-family="sans-serif" font-size="13" font-weight="bold" lengthAdjust="spacing" textLength="16" x="35" y="544.1201">alt</text><text fill="#000000" font-family="sans-serif" font-size="11" font-weight="bold" lengthAdjust="spacing" textLength="96" x="96" y="543.0439">[token not found]</text><polygon fill="#181818" points="663,566.3281,653,570.3281,663,574.3281,659,570.3281" style="stroke:#181818;stroke-width:1.0;"/><line style="stroke:#181818;stroke-width:1.0;stroke-dasharray:2.0,2.0;" x1="657" x2="897" y1="570.3281" y2="570.3281"/><text fill="#000000" font-family="sans-serif" font-size="13" lengthAdjust="spacing" textLength="172" x="669" y="565.4717">InvalidRefreshTokenException</text><polygon fill="#181818" points="286,596.6797,276,600.6797,286,604.6797,282,600.6797" style="stroke:#181818;stroke-width:1.0;"/><line style="stroke:#181818;stroke-width:1.0;stroke-dasharray:2.0,2.0;" x1="280" x2="651" y1="600.6797" y2="600.6797"/><text fill="#000000" font-family="sans-serif" font-size="13" lengthAdjust="spacing" textLength="56" x="292" y="595.8232">exception</text><polygon fill="#181818" points="484,627.0313,494,631.0313,484,635.0313,488,631.0313" style="stroke:#181818;stroke-width:1.0;"/><line style="stroke:#181818;stroke-width:1.0;stroke-dasharray:2.0,2.0;" x1="275" x2="490" y1="631.0313" y2="631.0313"/><text fill="#000000" font-family="sans-serif" font-size="13" lengthAdjust="spacing" textLength="124" x="282" y="626.1748">exception propagates</text><polygon fill="#181818" points="72,657.3828,62,661.3828,72,665.3828,68,661.3828" style="stroke:#181818;stroke-width:1.0;"/><line style="stroke:#181818;stroke-width:1.0;stroke-dasharray:2.0,2.0;" x1="66" x2="495" y1="661.3828" y2="661.3828"/><text fill="#000000" font-family="sans-serif" font-size="13" lengthAdjust="spacing" textLength="113" x="78" y="656.5264">401 ProblemDetails</text><line style="stroke:#000000;stroke-width:1.0;stroke-dasharray:2.0,2.0;" x1="20" x2="1790.5" y1="670.3828" y2="670.3828"/><text fill="#000000" font-family="sans-serif" font-size="11" font-weight="bold" lengthAdjust="spacing" textLength="248" x="25" y="681.8018">[token revoked or expired (reuse detection)]</text><polygon fill="#181818" points="1485.5,703.5703,1495.5,707.5703,1485.5,711.5703,1489.5,707.5703" style="stroke:#181818;stroke-width:1.0;"/><line style="stroke:#181818;stroke-width:1.0;" x1="898" x2="1491.5" y1="707.5703" y2="707.5703"/><text fill="#000000" font-family="sans-serif" font-size="13" lengthAdjust="spacing" textLength="146" x="905" y="702.7139">Load active family tokens</text><polygon fill="#181818" points="1714.5,733.9219,1724.5,737.9219,1714.5,741.9219,1718.5,737.9219" style="stroke:#181818;stroke-width:1.0;"/><line style="stroke:#181818;stroke-width:1.0;" x1="1497.5" x2="1720.5" y1="737.9219" y2="737.9219"/><text fill="#000000" font-family="sans-serif" font-size="13" lengthAdjust="spacing" textLength="168" x="1504.5" y="733.0654">SELECT active family tokens</text><polygon fill="#181818" points="1508.5,764.2734,1498.5,768.2734,1508.5,772.2734,1504.5,768.2734" style="stroke:#181818;stroke-width:1.0;"/><line style="stroke:#181818;stroke-width:1.0;stroke-dasharray:2.0,2.0;" x1="1502.5" x2="1725.5" y1="768.2734" y2="768.2734"/><text fill="#000000" font-family="sans-serif" font-size="13" lengthAdjust="spacing" textLength="32" x="1514.5" y="763.417">Rows</text><polygon fill="#181818" points="909,794.625,899,798.625,909,802.625,905,798.625" style="stroke:#181818;stroke-width:1.0;"/><line style="stroke:#181818;stroke-width:1.0;stroke-dasharray:2.0,2.0;" x1="903" x2="1496.5" y1="798.625" y2="798.625"/><text fill="#000000" font-family="sans-serif" font-size="13" lengthAdjust="spacing" textLength="116" x="915" y="793.7686">Active family tokens</text><polygon fill="#181818" points="1485.5,824.9766,1495.5,828.9766,1485.5,832.9766,1489.5,828.9766" style="stroke:#181818;stroke-width:1.0;"/><line style="stroke:#181818;stroke-width:1.0;" x1="898" x2="1491.5" y1="828.9766" y2="828.9766"/><text fill="#000000" font-family="sans-serif" font-size="13" lengthAdjust="spacing" textLength="233" x="905" y="824.1201">Revoke family and SaveChangesAsync()</text><polygon fill="#181818" points="1714.5,855.3281,1724.5,859.3281,1714.5,863.3281,1718.5,859.3281" style="stroke:#181818;stroke-width:1.0;"/><line style="stroke:#181818;stroke-width:1.0;" x1="1497.5" x2="1720.5" y1="859.3281" y2="859.3281"/><text fill="#000000" font-family="sans-serif" font-size="13" lengthAdjust="spacing" textLength="162" x="1504.5" y="854.4717">UPDATE family and commit</text><polygon fill="#181818" points="1508.5,885.6797,1498.5,889.6797,1508.5,893.6797,1504.5,889.6797" style="stroke:#181818;stroke-width:1.0;"/><line style="stroke:#181818;stroke-width:1.0;stroke-dasharray:2.0,2.0;" x1="1502.5" x2="1725.5" y1="889.6797" y2="889.6797"/><text fill="#000000" font-family="sans-serif" font-size="13" lengthAdjust="spacing" textLength="81" x="1514.5" y="884.8232">Commit result</text><polygon fill="#181818" points="663,916.0313,653,920.0313,663,924.0313,659,920.0313" style="stroke:#181818;stroke-width:1.0;"/><line style="stroke:#181818;stroke-width:1.0;stroke-dasharray:2.0,2.0;" x1="657" x2="897" y1="920.0313" y2="920.0313"/><text fill="#000000" font-family="sans-serif" font-size="13" lengthAdjust="spacing" textLength="172" x="669" y="915.1748">InvalidRefreshTokenException</text><polygon fill="#181818" points="286,946.3828,276,950.3828,286,954.3828,282,950.3828" style="stroke:#181818;stroke-width:1.0;"/><line style="stroke:#181818;stroke-width:1.0;stroke-dasharray:2.0,2.0;" x1="280" x2="651" y1="950.3828" y2="950.3828"/><text fill="#000000" font-family="sans-serif" font-size="13" lengthAdjust="spacing" textLength="56" x="292" y="945.5264">exception</text><polygon fill="#181818" points="484,976.7344,494,980.7344,484,984.7344,488,980.7344" style="stroke:#181818;stroke-width:1.0;"/><line style="stroke:#181818;stroke-width:1.0;stroke-dasharray:2.0,2.0;" x1="275" x2="490" y1="980.7344" y2="980.7344"/><text fill="#000000" font-family="sans-serif" font-size="13" lengthAdjust="spacing" textLength="124" x="282" y="975.8779">exception propagates</text><polygon fill="#181818" points="72,1007.0859,62,1011.0859,72,1015.0859,68,1011.0859" style="stroke:#181818;stroke-width:1.0;"/><line style="stroke:#181818;stroke-width:1.0;stroke-dasharray:2.0,2.0;" x1="66" x2="495" y1="1011.0859" y2="1011.0859"/><text fill="#000000" font-family="sans-serif" font-size="13" lengthAdjust="spacing" textLength="113" x="78" y="1006.2295">401 ProblemDetails</text><line style="stroke:#000000;stroke-width:1.0;stroke-dasharray:2.0,2.0;" x1="20" x2="1790.5" y1="1020.0859" y2="1020.0859"/><text fill="#000000" font-family="sans-serif" font-size="11" font-weight="bold" lengthAdjust="spacing" textLength="75" x="25" y="1031.5049">[token active]</text><polygon fill="#181818" points="1485.5,1069.625,1495.5,1073.625,1485.5,1077.625,1489.5,1073.625" style="stroke:#181818;stroke-width:1.0;"/><line style="stroke:#181818;stroke-width:1.0;" x1="898" x2="1491.5" y1="1073.625" y2="1073.625"/><text fill="#000000" font-family="sans-serif" font-size="13" lengthAdjust="spacing" textLength="172" x="905" y="1052.417">Load active account and roles</text><text fill="#000000" font-family="sans-serif" font-size="13" lengthAdjust="spacing" textLength="89" x="905" y="1068.7686">AsNoTracking()</text><polygon fill="#181818" points="1714.5,1099.9766,1724.5,1103.9766,1714.5,1107.9766,1718.5,1103.9766" style="stroke:#181818;stroke-width:1.0;"/><line style="stroke:#181818;stroke-width:1.0;" x1="1497.5" x2="1720.5" y1="1103.9766" y2="1103.9766"/><text fill="#000000" font-family="sans-serif" font-size="13" lengthAdjust="spacing" textLength="157" x="1504.5" y="1099.1201">SELECT account and roles</text><polygon fill="#181818" points="1508.5,1130.3281,1498.5,1134.3281,1508.5,1138.3281,1504.5,1134.3281" style="stroke:#181818;stroke-width:1.0;"/><line style="stroke:#181818;stroke-width:1.0;stroke-dasharray:2.0,2.0;" x1="1502.5" x2="1725.5" y1="1134.3281" y2="1134.3281"/><text fill="#000000" font-family="sans-serif" font-size="13" lengthAdjust="spacing" textLength="79" x="1514.5" y="1129.4717">Rows or none</text><polygon fill="#181818" points="909,1160.6797,899,1164.6797,909,1168.6797,905,1164.6797" style="stroke:#181818;stroke-width:1.0;"/><line style="stroke:#181818;stroke-width:1.0;stroke-dasharray:2.0,2.0;" x1="903" x2="1496.5" y1="1164.6797" y2="1164.6797"/><text fill="#000000" font-family="sans-serif" font-size="13" lengthAdjust="spacing" textLength="87" x="915" y="1159.8232">Account or null</text><path d="M30,1179.6797 L91,1179.6797 L91,1188.0313 L81,1198.0313 L30,1198.0313 L30,1179.6797 " fill="#EEEEEE" style="stroke:#000000;stroke-width:1.5;"/><rect fill="none" height="565.5156" style="stroke:#000000;stroke-width:1.5;" width="1750.5" x="30" y="1179.6797"/><text fill="#000000" font-family="sans-serif" font-size="13" font-weight="bold" lengthAdjust="spacing" textLength="16" x="45" y="1194.1748">alt</text><text fill="#000000" font-family="sans-serif" font-size="11" font-weight="bold" lengthAdjust="spacing" textLength="159" x="106" y="1193.0986">[account missing or inactive]</text><polygon fill="#181818" points="663,1216.3828,653,1220.3828,663,1224.3828,659,1220.3828" style="stroke:#181818;stroke-width:1.0;"/><line style="stroke:#181818;stroke-width:1.0;stroke-dasharray:2.0,2.0;" x1="657" x2="897" y1="1220.3828" y2="1220.3828"/><text fill="#000000" font-family="sans-serif" font-size="13" lengthAdjust="spacing" textLength="172" x="669" y="1215.5264">InvalidRefreshTokenException</text><polygon fill="#181818" points="286,1246.7344,276,1250.7344,286,1254.7344,282,1250.7344" style="stroke:#181818;stroke-width:1.0;"/><line style="stroke:#181818;stroke-width:1.0;stroke-dasharray:2.0,2.0;" x1="280" x2="651" y1="1250.7344" y2="1250.7344"/><text fill="#000000" font-family="sans-serif" font-size="13" lengthAdjust="spacing" textLength="56" x="292" y="1245.8779">exception</text><polygon fill="#181818" points="484,1277.0859,494,1281.0859,484,1285.0859,488,1281.0859" style="stroke:#181818;stroke-width:1.0;"/><line style="stroke:#181818;stroke-width:1.0;stroke-dasharray:2.0,2.0;" x1="275" x2="490" y1="1281.0859" y2="1281.0859"/><text fill="#000000" font-family="sans-serif" font-size="13" lengthAdjust="spacing" textLength="124" x="282" y="1276.2295">exception propagates</text><polygon fill="#181818" points="72,1307.4375,62,1311.4375,72,1315.4375,68,1311.4375" style="stroke:#181818;stroke-width:1.0;"/><line style="stroke:#181818;stroke-width:1.0;stroke-dasharray:2.0,2.0;" x1="66" x2="495" y1="1311.4375" y2="1311.4375"/><text fill="#000000" font-family="sans-serif" font-size="13" lengthAdjust="spacing" textLength="113" x="78" y="1306.5811">401 ProblemDetails</text><line style="stroke:#000000;stroke-width:1.0;stroke-dasharray:2.0,2.0;" x1="30" x2="1780.5" y1="1320.4375" y2="1320.4375"/><text fill="#000000" font-family="sans-serif" font-size="11" font-weight="bold" lengthAdjust="spacing" textLength="86" x="35" y="1331.8564">[account active]</text><polygon fill="#181818" points="1338.5,1353.625,1348.5,1357.625,1338.5,1361.625,1342.5,1357.625" style="stroke:#181818;stroke-width:1.0;"/><line style="stroke:#181818;stroke-width:1.0;" x1="898" x2="1344.5" y1="1357.625" y2="1357.625"/><text fill="#000000" font-family="sans-serif" font-size="13" lengthAdjust="spacing" textLength="107" x="905" y="1352.7686">Generate(account)</text><polygon fill="#181818" points="909,1383.9766,899,1387.9766,909,1391.9766,905,1387.9766" style="stroke:#181818;stroke-width:1.0;"/><line style="stroke:#181818;stroke-width:1.0;stroke-dasharray:2.0,2.0;" x1="903" x2="1349.5" y1="1387.9766" y2="1387.9766"/><text fill="#000000" font-family="sans-serif" font-size="13" lengthAdjust="spacing" textLength="107" x="915" y="1383.1201">New access token</text><polygon fill="#181818" points="1172,1414.3281,1182,1418.3281,1172,1422.3281,1176,1418.3281" style="stroke:#181818;stroke-width:1.0;"/><line style="stroke:#181818;stroke-width:1.0;" x1="898" x2="1178" y1="1418.3281" y2="1418.3281"/><text fill="#000000" font-family="sans-serif" font-size="13" lengthAdjust="spacing" textLength="262" x="905" y="1413.4717">Generate(account, same FamilyId, metadata)</text><polygon fill="#181818" points="909,1444.6797,899,1448.6797,909,1452.6797,905,1448.6797" style="stroke:#181818;stroke-width:1.0;"/><line style="stroke:#181818;stroke-width:1.0;stroke-dasharray:2.0,2.0;" x1="903" x2="1183" y1="1448.6797" y2="1448.6797"/><text fill="#000000" font-family="sans-serif" font-size="13" lengthAdjust="spacing" textLength="195" x="915" y="1443.8232">Raw token + hashed token record</text><polygon fill="#181818" points="1485.5,1491.3828,1495.5,1495.3828,1485.5,1499.3828,1489.5,1495.3828" style="stroke:#181818;stroke-width:1.0;"/><line style="stroke:#181818;stroke-width:1.0;" x1="898" x2="1491.5" y1="1495.3828" y2="1495.3828"/><text fill="#000000" font-family="sans-serif" font-size="13" lengthAdjust="spacing" textLength="209" x="905" y="1474.1748">Revoke old with ReplacedByTokenId</text><text fill="#000000" font-family="sans-serif" font-size="13" lengthAdjust="spacing" textLength="239" x="905" y="1490.5264">Add new token and SaveChangesAsync()</text><polygon fill="#181818" points="1714.5,1521.7344,1724.5,1525.7344,1714.5,1529.7344,1718.5,1525.7344" style="stroke:#181818;stroke-width:1.0;"/><line style="stroke:#181818;stroke-width:1.0;" x1="1497.5" x2="1720.5" y1="1525.7344" y2="1525.7344"/><text fill="#000000" font-family="sans-serif" font-size="13" lengthAdjust="spacing" textLength="205" x="1504.5" y="1520.8779">UPDATE old, INSERT new, commit</text><polygon fill="#181818" points="1508.5,1552.0859,1498.5,1556.0859,1508.5,1560.0859,1504.5,1556.0859" style="stroke:#181818;stroke-width:1.0;"/><line style="stroke:#181818;stroke-width:1.0;stroke-dasharray:2.0,2.0;" x1="1502.5" x2="1725.5" y1="1556.0859" y2="1556.0859"/><text fill="#000000" font-family="sans-serif" font-size="13" lengthAdjust="spacing" textLength="81" x="1514.5" y="1551.2295">Commit result</text><polygon fill="#181818" points="909,1582.4375,899,1586.4375,909,1590.4375,905,1586.4375" style="stroke:#181818;stroke-width:1.0;"/><line style="stroke:#181818;stroke-width:1.0;stroke-dasharray:2.0,2.0;" x1="903" x2="1496.5" y1="1586.4375" y2="1586.4375"/><text fill="#000000" font-family="sans-serif" font-size="13" lengthAdjust="spacing" textLength="35" x="915" y="1581.5811">Saved</text><polygon fill="#181818" points="663,1612.7891,653,1616.7891,663,1620.7891,659,1616.7891" style="stroke:#181818;stroke-width:1.0;"/><line style="stroke:#181818;stroke-width:1.0;stroke-dasharray:2.0,2.0;" x1="657" x2="897" y1="1616.7891" y2="1616.7891"/><text fill="#000000" font-family="sans-serif" font-size="13" lengthAdjust="spacing" textLength="222" x="669" y="1611.9326">New access token + raw refresh token</text><polygon fill="#181818" points="286,1643.1406,276,1647.1406,286,1651.1406,282,1647.1406" style="stroke:#181818;stroke-width:1.0;"/><line style="stroke:#181818;stroke-width:1.0;stroke-dasharray:2.0,2.0;" x1="280" x2="651" y1="1647.1406" y2="1647.1406"/><text fill="#000000" font-family="sans-serif" font-size="13" lengthAdjust="spacing" textLength="160" x="292" y="1642.2842">RefreshTokenHandlerResult</text><line style="stroke:#181818;stroke-width:1.0;" x1="275" x2="317" y1="1677.4922" y2="1677.4922"/><line style="stroke:#181818;stroke-width:1.0;" x1="317" x2="317" y1="1677.4922" y2="1690.4922"/><line style="stroke:#181818;stroke-width:1.0;" x1="276" x2="317" y1="1690.4922" y2="1690.4922"/><polygon fill="#181818" points="286,1686.4922,276,1690.4922,286,1694.4922,282,1690.4922" style="stroke:#181818;stroke-width:1.0;"/><text fill="#000000" font-family="sans-serif" font-size="13" lengthAdjust="spacing" textLength="207" x="282" y="1672.6357">Replace configured HttpOnly cookie</text><polygon fill="#181818" points="72,1733.1953,62,1737.1953,72,1741.1953,68,1737.1953" style="stroke:#181818;stroke-width:1.0;"/><line style="stroke:#181818;stroke-width:1.0;stroke-dasharray:2.0,2.0;" x1="66" x2="274" y1="1737.1953" y2="1737.1953"/><text fill="#000000" font-family="sans-serif" font-size="13" lengthAdjust="spacing" textLength="190" x="78" y="1715.9873">200 body: access token + expiry</text><text fill="#000000" font-family="sans-serif" font-size="13" lengthAdjust="spacing" textLength="174" x="78" y="1732.3389">Set-Cookie: new refresh token</text><!--SRC=[xLTDSzem4BtxL-pa1DCmIJDj3nmoGu4sT98q1NBBHLWRq4H8hYGW_FkkP1imjWaqFPOPniBUVVlrThquuIJ249yDsXcCzGig66h7dD0AMl1uTmiZ_Br05IFq19iQDe-YcU08prgxYNwD8XOxRQ0h1IeN9Smu4Ok4APUZThLoHak9fl3qkzGJ9lklCIRUs0rJV5_aR312nT701TmX5ymDpu3P_5nbAmHG1JNO5VYE2WtpNXDQvOEYxe-LA-kLRXPqnWkw8zIqD_7XusinCsUZNpwlPeacHDHZZasOnIXAqmYjwtBse0qFFqTZk629k60BDximgSYJoWuj5-eNQ_qY28j9bvrXBgmbRoAWJncuHUQgoq4s1sh9fE2xQTf81RmQJG-QHTE6JvSVuS7eYSHv3nqJqaOeBURk9GJjsLFZtdLUSaBoZ6ZiEjFLypcPR0RbN6wRlrr6a7fwQiIxIbMIUm3Rodi8EsiOjeAGxJB4LhPLwyRefjEw-lm5PeHro8SIZKZtcr0SiegdFi1alKKggn1EJZ1lkd_RxuwB045n8zEgCJpKAw2eb5POPwasu7IoUEs5b55Gz_HCtLVQqJXPA1xkrwQZm8CtQLcWGqq_OKdZnERO0125TSAcpA7TOFrbOtZLq1nfSWmkwSfzxl0r4OQE3OCBUixHOUoHcuVpLbtDMyquqEmMIvhbR2xaEZMuzVz89Xt4E8PK1otMCgfpoEm9UHY6_EOu90iZjiJkZAafsevTgxZHF3ebZm-zphY_2-OdZN37vwCRvAdgTY7T_tuezqDAj_SodiKn3HmNIaI1eNrI7NklnuR5BwHsGiatNR07U5eB50RhwQsGsix7QuxX9spkLxO1U1cXzdBu3ndsTopxrqnx9zisZDiKzSXyNPUtGhAIdR6HmJKBG6MD-aBVuyhxXDRklBVVyAXkZTdtwXmicoDy2wDhmCzXJXdXnDrchPLZN1xcYn9y23iAlRxozrgi3JycWWDJMqiEA-5cz3kHB4R-THsq1vpwcNDGc5j_Ox2VCDp9vZaCxaVzuTZZd- -F-7UC-LCRtmV4JspZVGvHNVmoMzu7Zstd2fF3SbYLQtqrNAWaPLKzY-d2xpitpYK_5RrGitysRu-DJOTVNLx2HFDrUp_ci4kjdzG8NQiRODk1BTLvm6mtzLV__GC0]--></g></svg>