<?xml version="1.0" encoding="us-ascii" standalone="no"?><svg xmlns="http://www.w3.org/2000/svg" xmlns:xlink="http://www.w3.org/1999/xlink" contentStyleType="text/css" height="1799px" preserveAspectRatio="none" style="width:2666px;height:1799px;background:#FFFFFF;" version="1.1" viewBox="0 0 2666 1799" width="2666px" zoomAndPan="magnify"><defs/><g><text fill="#000000" font-family="sans-serif" font-size="14" font-weight="bold" lengthAdjust="spacing" textLength="356" x="1151.25" y="29.5332">Add Student by Invitation - UML Sequence Diagram</text><rect fill="none" height="306.3516" style="stroke:#000000;stroke-width:1.5;" width="2358" x="248.5" y="1469.3359"/><line style="stroke:#181818;stroke-width:0.5;stroke-dasharray:5.0,5.0;" x1="25" x2="25" y1="121.2188" y2="1792.6875"/><line style="stroke:#181818;stroke-width:0.5;stroke-dasharray:5.0,5.0;" x1="275.5" x2="275.5" y1="121.2188" y2="1792.6875"/><line style="stroke:#181818;stroke-width:0.5;stroke-dasharray:5.0,5.0;" x1="433.5" x2="433.5" y1="121.2188" y2="1792.6875"/><line style="stroke:#181818;stroke-width:0.5;stroke-dasharray:5.0,5.0;" x1="721.5" x2="721.5" y1="121.2188" y2="1792.6875"/><line style="stroke:#181818;stroke-width:0.5;stroke-dasharray:5.0,5.0;" x1="972.5" x2="972.5" y1="121.2188" y2="1792.6875"/><line style="stroke:#181818;stroke-width:0.5;stroke-dasharray:5.0,5.0;" x1="1110.5" x2="1110.5" y1="121.2188" y2="1792.6875"/><line style="stroke:#181818;stroke-width:0.5;stroke-dasharray:5.0,5.0;" x1="1348.5" x2="1348.5" y1="121.2188" y2="1792.6875"/><line style="stroke:#181818;stroke-width:0.5;stroke-dasharray:5.0,5.0;" x1="1498.5" x2="1498.5" y1="121.2188" y2="1792.6875"/><line style="stroke:#181818;stroke-width:0.5;stroke-dasharray:5.0,5.0;" x1="1641.5" x2="1641.5" y1="121.2188" y2="1792.6875"/><line style="stroke:#181818;stroke-width:0.5;stroke-dasharray:5.0,5.0;" x1="1853.5" x2="1853.5" y1="121.2188" y2="1792.6875"/><line style="stroke:#181818;stroke-width:0.5;stroke-dasharray:5.0,5.0;" x1="2032.5" x2="2032.5" y1="121.2188" y2="1792.6875"/><line style="stroke:#181818;stroke-width:0.5;stroke-dasharray:5.0,5.0;" x1="2149.5" x2="2149.5" y1="121.2188" y2="1792.6875"/><line style="stroke:#181818;stroke-width:0.5;stroke-dasharray:5.0,5.0;" x1="2309" x2="2309" y1="121.2188" y2="1792.6875"/><line style="stroke:#181818;stroke-width:0.5;stroke-dasharray:5.0,5.0;" x1="2452" x2="2452" y1="121.2188" y2="1792.6875"/><text fill="#000000" font-family="sans-serif" font-size="14" lengthAdjust="spacing" textLength="34" x="5" y="118.1426">Tutor</text><ellipse cx="25" cy="52.1094" fill="#E2E2F0" rx="8" ry="8" style="stroke:#181818;stroke-width:0.5;"/><path d="M25,60.1094 L25,87.1094 M12,68.1094 L38,68.1094 M25,87.1094 L12,102.1094 M25,87.1094 L38,102.1094 " fill="none" style="stroke:#181818;stroke-width:0.5;"/><rect fill="#E2E2F0" height="31.6094" rx="2.5" ry="2.5" style="stroke:#181818;stroke-width:0.5;" width="35" x="258.5" y="88.6094"/><text fill="#000000" font-family="sans-serif" font-size="14" lengthAdjust="spacing" textLength="21" x="265.5" y="110.1426">API</text><rect fill="#E2E2F0" height="31.6094" rx="2.5" ry="2.5" style="stroke:#181818;stroke-width:0.5;" width="145" x="361.5" y="88.6094"/><text fill="#000000" font-family="sans-serif" font-size="14" lengthAdjust="spacing" textLength="131" x="368.5" y="110.1426">InviteStudentHandler</text><text fill="#000000" font-family="sans-serif" font-size="14" lengthAdjust="spacing" textLength="61" x="688.5" y="118.1426">Database</text><path d="M704,67.6094 C704,57.6094 722,57.6094 722,57.6094 C722,57.6094 740,57.6094 740,67.6094 L740,93.6094 C740,103.6094 722,103.6094 722,103.6094 C722,103.6094 704,103.6094 704,93.6094 L704,67.6094 " fill="#E2E2F0" style="stroke:#181818;stroke-width:1.5;"/><path d="M704,67.6094 C704,77.6094 722,77.6094 722,77.6094 C722,77.6094 740,77.6094 740,67.6094 " fill="none" style="stroke:#181818;stroke-width:1.5;"/><rect fill="#E2E2F0" height="31.6094" rx="2.5" ry="2.5" style="stroke:#181818;stroke-width:0.5;" width="123" x="911.5" y="88.6094"/><text fill="#000000" font-family="sans-serif" font-size="14" lengthAdjust="spacing" textLength="109" x="918.5" y="110.1426">OutboxProcessor</text><rect fill="#E2E2F0" height="31.6094" rx="2.5" ry="2.5" style="stroke:#181818;stroke-width:0.5;" width="133" x="1044.5" y="88.6094"/><text fill="#000000" font-family="sans-serif" font-size="14" lengthAdjust="spacing" textLength="119" x="1051.5" y="110.1426">RabbitMqPublisher</text><path d="M1312.5,93.6094 L1385.5,93.6094 C1390.5,93.6094 1390.5,107.4141 1390.5,107.4141 C1390.5,107.4141 1390.5,121.2188 1385.5,121.2188 L1312.5,121.2188 C1307.5,121.2188 1307.5,107.4141 1307.5,107.4141 C1307.5,107.4141 1307.5,93.6094 1312.5,93.6094 " fill="#E2E2F0" style="stroke:#181818;stroke-width:0.5;"/><path d="M1385.5,93.6094 C1380.5,93.6094 1380.5,107.4141 1380.5,107.4141 C1380.5,121.2188 1385.5,121.2188 1385.5,121.2188 " fill="none" style="stroke:#181818;stroke-width:0.5;"/><text fill="#000000" font-family="sans-serif" font-size="14" lengthAdjust="spacing" textLength="63" x="1312.5" y="113.1426">RabbitMQ</text><rect fill="#E2E2F0" height="31.6094" rx="2.5" ry="2.5" style="stroke:#181818;stroke-width:0.5;" width="113" x="1442.5" y="88.6094"/><text fill="#000000" font-family="sans-serif" font-size="14" lengthAdjust="spacing" textLength="99" x="1449.5" y="110.1426">EmailConsumer</text><rect fill="#E2E2F0" height="31.6094" rx="2.5" ry="2.5" style="stroke:#181818;stroke-width:0.5;" width="152" x="1565.5" y="88.6094"/><text fill="#000000" font-family="sans-serif" font-size="14" lengthAdjust="spacing" textLength="138" x="1572.5" y="110.1426">EmailEventDispatcher</text><rect fill="#E2E2F0" height="31.6094" rx="2.5" ry="2.5" style="stroke:#181818;stroke-width:0.5;" width="253" x="1727.5" y="88.6094"/><text fill="#000000" font-family="sans-serif" font-size="14" lengthAdjust="spacing" textLength="239" x="1734.5" y="110.1426">StudentInvitationCreatedEmailHandler</text><rect fill="#E2E2F0" height="31.6094" rx="2.5" ry="2.5" style="stroke:#181818;stroke-width:0.5;" width="84" x="1990.5" y="88.6094"/><text fill="#000000" font-family="sans-serif" font-size="14" lengthAdjust="spacing" textLength="70" x="1997.5" y="110.1426">SmtpMailer</text><rect fill="#E2E2F0" height="31.6094" rx="2.5" ry="2.5" style="stroke:#181818;stroke-width:0.5;" width="104" x="2097.5" y="88.6094"/><text fill="#000000" font-family="sans-serif" font-size="14" lengthAdjust="spacing" textLength="90" x="2104.5" y="110.1426">SMTP / Mailpit</text><text fill="#000000" font-family="sans-serif" font-size="14" lengthAdjust="spacing" textLength="49" x="2282" y="118.1426">Student</text><ellipse cx="2309.5" cy="52.1094" fill="#E2E2F0" rx="8" ry="8" style="stroke:#181818;stroke-width:0.5;"/><path d="M2309.5,60.1094 L2309.5,87.1094 M2296.5,68.1094 L2322.5,68.1094 M2309.5,87.1094 L2296.5,102.1094 M2309.5,87.1094 L2322.5,102.1094 " fill="none" style="stroke:#181818;stroke-width:0.5;"/><rect fill="#E2E2F0" height="31.6094" rx="2.5" ry="2.5" style="stroke:#181818;stroke-width:0.5;" width="211" x="2347" y="88.6094"/><text fill="#000000" font-family="sans-serif" font-size="14" lengthAdjust="spacing" textLength="197" x="2354" y="110.1426">AcceptStudentInvitationHandler</text><polygon fill="#181818" points="264,149.5703,274,153.5703,264,157.5703,268,153.5703" style="stroke:#181818;stroke-width:1.0;"/><line style="stroke:#181818;stroke-width:1.0;" x1="25" x2="270" y1="153.5703" y2="153.5703"/><text fill="#000000" font-family="sans-serif" font-size="13" lengthAdjust="spacing" textLength="227" x="32" y="148.7139">POST /api/tutors/me/student-invitations</text><polygon fill="#181818" points="422,179.9219,432,183.9219,422,187.9219,426,183.9219" style="stroke:#181818;stroke-width:1.0;"/><line style="stroke:#181818;stroke-width:1.0;" x1="276" x2="428" y1="183.9219" y2="183.9219"/><text fill="#000000" font-family="sans-serif" font-size="13" lengthAdjust="spacing" textLength="133" x="283" y="179.0654">InviteStudentCommand</text><polygon fill="#181818" points="710,210.2734,720,214.2734,710,218.2734,714,214.2734" style="stroke:#181818;stroke-width:1.0;"/><line style="stroke:#181818;stroke-width:1.0;" x1="434" x2="716" y1="214.2734" y2="214.2734"/><text fill="#000000" font-family="sans-serif" font-size="13" lengthAdjust="spacing" textLength="252" x="441" y="209.417">Check active agreement for Tutor+Recipient</text><polygon fill="#181818" points="710,256.9766,720,260.9766,710,264.9766,714,260.9766" style="stroke:#181818;stroke-width:1.0;"/><line style="stroke:#181818;stroke-width:1.0;" x1="434" x2="716" y1="260.9766" y2="260.9766"/><text fill="#000000" font-family="sans-serif" font-size="13" lengthAdjust="spacing" textLength="220" x="441" y="239.7686">Load previous Created/Sent invitations</text><text fill="#000000" font-family="sans-serif" font-size="13" lengthAdjust="spacing" textLength="109" x="441" y="256.1201">for Tutor+Recipient</text><polygon fill="#181818" points="445,287.3281,435,291.3281,445,295.3281,441,291.3281" style="stroke:#181818;stroke-width:1.0;"/><line style="stroke:#181818;stroke-width:1.0;stroke-dasharray:2.0,2.0;" x1="439" x2="721" y1="291.3281" y2="291.3281"/><text fill="#000000" font-family="sans-serif" font-size="13" lengthAdjust="spacing" textLength="147" x="451" y="286.4717">Previous active invitations</text><line style="stroke:#181818;stroke-width:1.0;" x1="434" x2="476" y1="321.6797" y2="321.6797"/><line style="stroke:#181818;stroke-width:1.0;" x1="476" x2="476" y1="321.6797" y2="334.6797"/><line style="stroke:#181818;stroke-width:1.0;" x1="435" x2="476" y1="334.6797" y2="334.6797"/><polygon fill="#181818" points="445,330.6797,435,334.6797,445,338.6797,441,334.6797" style="stroke:#181818;stroke-width:1.0;"/><text fill="#000000" font-family="sans-serif" font-size="13" lengthAdjust="spacing" textLength="189" x="441" y="316.8232">Mark previous invitations Expired</text><line style="stroke:#181818;stroke-width:1.0;" x1="434" x2="476" y1="365.0313" y2="365.0313"/><line style="stroke:#181818;stroke-width:1.0;" x1="476" x2="476" y1="365.0313" y2="378.0313"/><line style="stroke:#181818;stroke-width:1.0;" x1="435" x2="476" y1="378.0313" y2="378.0313"/><polygon fill="#181818" points="445,374.0313,435,378.0313,445,382.0313,441,378.0313" style="stroke:#181818;stroke-width:1.0;"/><text fill="#000000" font-family="sans-serif" font-size="13" lengthAdjust="spacing" textLength="194" x="441" y="360.1748">Generate raw token + TokenHash</text><line style="stroke:#181818;stroke-width:1.0;" x1="434" x2="476" y1="408.3828" y2="408.3828"/><line style="stroke:#181818;stroke-width:1.0;" x1="476" x2="476" y1="408.3828" y2="421.3828"/><line style="stroke:#181818;stroke-width:1.0;" x1="435" x2="476" y1="421.3828" y2="421.3828"/><polygon fill="#181818" points="445,417.3828,435,421.3828,445,425.3828,441,421.3828" style="stroke:#181818;stroke-width:1.0;"/><text fill="#000000" font-family="sans-serif" font-size="13" lengthAdjust="spacing" textLength="137" x="441" y="403.5264">Create StudentInvitation</text><line style="stroke:#181818;stroke-width:1.0;" x1="434" x2="476" y1="451.7344" y2="451.7344"/><line style="stroke:#181818;stroke-width:1.0;" x1="476" x2="476" y1="451.7344" y2="464.7344"/><line style="stroke:#181818;stroke-width:1.0;" x1="435" x2="476" y1="464.7344" y2="464.7344"/><polygon fill="#181818" points="445,460.7344,435,464.7344,445,468.7344,441,464.7344" style="stroke:#181818;stroke-width:1.0;"/><text fill="#000000" font-family="sans-serif" font-size="13" lengthAdjust="spacing" textLength="274" x="441" y="446.8779">Create StudentInvitationCreatedIntegrationEvent</text><polygon fill="#181818" points="710,523.7891,720,527.7891,710,531.7891,714,527.7891" style="stroke:#181818;stroke-width:1.0;"/><line style="stroke:#181818;stroke-width:1.0;" x1="434" x2="716" y1="527.7891" y2="527.7891"/><text fill="#000000" font-family="sans-serif" font-size="13" lengthAdjust="spacing" textLength="135" x="441" y="490.2295">Save expired invitations</text><text fill="#000000" font-family="sans-serif" font-size="13" lengthAdjust="spacing" textLength="239" x="441" y="506.5811">+ new StudentInvitation (TokenHash only)</text><text fill="#000000" font-family="sans-serif" font-size="13" lengthAdjust="spacing" textLength="238" x="441" y="522.9326">+ OutboxMessage (raw token in payload)</text><path d="M727,540.7891 L727,648.7891 L976,648.7891 L976,550.7891 L966,540.7891 L727,540.7891 " fill="#FEFFDD" style="stroke:#181818;stroke-width:0.5;"/><path d="M966,540.7891 L966,550.7891 L976,550.7891 L966,540.7891 " fill="#FEFFDD" style="stroke:#181818;stroke-width:0.5;"/><text fill="#000000" font-family="sans-serif" font-size="13" lengthAdjust="spacing" textLength="228" x="733" y="559.2842">Previous active invitations are preserved</text><text fill="#000000" font-family="sans-serif" font-size="13" lengthAdjust="spacing" textLength="178" x="733" y="575.6357">for history but marked Expired.</text><text fill="#000000" font-family="sans-serif" font-size="13" lengthAdjust="spacing" textLength="4" x="733" y="591.9873">&#160;</text><text fill="#000000" font-family="sans-serif" font-size="13" lengthAdjust="spacing" textLength="190" x="733" y="608.3389">The new StudentInvitation and its</text><text fill="#000000" font-family="sans-serif" font-size="13" lengthAdjust="spacing" textLength="210" x="733" y="624.6904">OutboxMessage are persisted in the</text><text fill="#000000" font-family="sans-serif" font-size="13" lengthAdjust="spacing" textLength="180" x="733" y="641.042">same SaveChangesAsync call.</text><polygon fill="#181818" points="287,672.25,277,676.25,287,680.25,283,676.25" style="stroke:#181818;stroke-width:1.0;"/><line style="stroke:#181818;stroke-width:1.0;stroke-dasharray:2.0,2.0;" x1="281" x2="433" y1="676.25" y2="676.25"/><text fill="#000000" font-family="sans-serif" font-size="13" lengthAdjust="spacing" textLength="134" x="293" y="671.3936">InvitationUrl (raw token)</text><polygon fill="#181818" points="36,702.6016,26,706.6016,36,710.6016,32,706.6016" style="stroke:#181818;stroke-width:1.0;"/><line style="stroke:#181818;stroke-width:1.0;stroke-dasharray:2.0,2.0;" x1="30" x2="275" y1="706.6016" y2="706.6016"/><text fill="#000000" font-family="sans-serif" font-size="13" lengthAdjust="spacing" textLength="134" x="42" y="701.7451">200 OK + invitation link</text><rect fill="#EEEEEE" height="3" style="stroke:#EEEEEE;stroke-width:1.0;" width="2659.5" x="0" y="735.7773"/><line style="stroke:#000000;stroke-width:1.0;" x1="0" x2="2659.5" y1="735.7773" y2="735.7773"/><line style="stroke:#000000;stroke-width:1.0;" x1="0" x2="2659.5" y1="738.7773" y2="738.7773"/><rect fill="#EEEEEE" height="24.3516" style="stroke:#000000;stroke-width:2.0;" width="201" x="1229.25" y="724.6016"/><text fill="#000000" font-family="sans-serif" font-size="13" font-weight="bold" lengthAdjust="spacing" textLength="183" x="1235.25" y="742.0967">Asynchronous email delivery</text><polygon fill="#181818" points="733,777.3047,723,781.3047,733,785.3047,729,781.3047" style="stroke:#181818;stroke-width:1.0;"/><line style="stroke:#181818;stroke-width:1.0;" x1="727" x2="972" y1="781.3047" y2="781.3047"/><text fill="#000000" font-family="sans-serif" font-size="13" lengthAdjust="spacing" textLength="205" x="739" y="776.4482">Load unprocessed OutboxMessage</text><polygon fill="#181818" points="961,807.6563,971,811.6563,961,815.6563,965,811.6563" style="stroke:#181818;stroke-width:1.0;"/><line style="stroke:#181818;stroke-width:1.0;stroke-dasharray:2.0,2.0;" x1="722" x2="967" y1="811.6563" y2="811.6563"/><text fill="#000000" font-family="sans-serif" font-size="13" lengthAdjust="spacing" textLength="167" x="729" y="806.7998">student-invitations.created.v1</text><polygon fill="#181818" points="1099,838.0078,1109,842.0078,1099,846.0078,1103,842.0078" style="stroke:#181818;stroke-width:1.0;"/><line style="stroke:#181818;stroke-width:1.0;" x1="973" x2="1105" y1="842.0078" y2="842.0078"/><text fill="#000000" font-family="sans-serif" font-size="13" lengthAdjust="spacing" textLength="77" x="980" y="837.1514">Publish event</text><polygon fill="#181818" points="1337,868.3594,1347,872.3594,1337,876.3594,1341,872.3594" style="stroke:#181818;stroke-width:1.0;"/><line style="stroke:#181818;stroke-width:1.0;" x1="1111" x2="1343" y1="872.3594" y2="872.3594"/><text fill="#000000" font-family="sans-serif" font-size="13" lengthAdjust="spacing" textLength="214" x="1118" y="867.5029">Publish student-invitations.created.v1</text><polygon fill="#181818" points="984,898.7109,974,902.7109,984,906.7109,980,902.7109" style="stroke:#181818;stroke-width:1.0;"/><line style="stroke:#181818;stroke-width:1.0;stroke-dasharray:2.0,2.0;" x1="978" x2="1110" y1="902.7109" y2="902.7109"/><text fill="#000000" font-family="sans-serif" font-size="13" lengthAdjust="spacing" textLength="103" x="990" y="897.8545">Publish confirmed</text><polygon fill="#181818" points="733,929.0625,723,933.0625,733,937.0625,729,933.0625" style="stroke:#181818;stroke-width:1.0;"/><line style="stroke:#181818;stroke-width:1.0;" x1="727" x2="972" y1="933.0625" y2="933.0625"/><text fill="#000000" font-family="sans-serif" font-size="13" lengthAdjust="spacing" textLength="227" x="739" y="928.2061">Mark OutboxMessage ProcessedAtUtc</text><polygon fill="#181818" points="1487,959.4141,1497,963.4141,1487,967.4141,1491,963.4141" style="stroke:#181818;stroke-width:1.0;"/><line style="stroke:#181818;stroke-width:1.0;" x1="1349" x2="1493" y1="963.4141" y2="963.4141"/><text fill="#000000" font-family="sans-serif" font-size="13" lengthAdjust="spacing" textLength="126" x="1356" y="958.5576">Deliver invitation event</text><polygon fill="#181818" points="1629.5,989.7656,1639.5,993.7656,1629.5,997.7656,1633.5,993.7656" style="stroke:#181818;stroke-width:1.0;"/><line style="stroke:#181818;stroke-width:1.0;" x1="1499" x2="1635.5" y1="993.7656" y2="993.7656"/><text fill="#000000" font-family="sans-serif" font-size="13" lengthAdjust="spacing" textLength="85" x="1506" y="988.9092">Dispatch event</text><polygon fill="#181818" points="1842,1020.1172,1852,1024.1172,1842,1028.1172,1846,1024.1172" style="stroke:#181818;stroke-width:1.0;"/><line style="stroke:#181818;stroke-width:1.0;" x1="1641.5" x2="1848" y1="1024.1172" y2="1024.1172"/><text fill="#000000" font-family="sans-serif" font-size="13" lengthAdjust="spacing" textLength="89" x="1648.5" y="1019.2607">Handle payload</text><line style="stroke:#181818;stroke-width:1.0;" x1="1854" x2="1896" y1="1054.4688" y2="1054.4688"/><line style="stroke:#181818;stroke-width:1.0;" x1="1896" x2="1896" y1="1054.4688" y2="1067.4688"/><line style="stroke:#181818;stroke-width:1.0;" x1="1855" x2="1896" y1="1067.4688" y2="1067.4688"/><polygon fill="#181818" points="1865,1063.4688,1855,1067.4688,1865,1071.4688,1861,1067.4688" style="stroke:#181818;stroke-width:1.0;"/><text fill="#000000" font-family="sans-serif" font-size="13" lengthAdjust="spacing" textLength="112" x="1861" y="1049.6123">Build invitation URL</text><line style="stroke:#181818;stroke-width:1.0;" x1="1854" x2="1896" y1="1097.8203" y2="1097.8203"/><line style="stroke:#181818;stroke-width:1.0;" x1="1896" x2="1896" y1="1097.8203" y2="1110.8203"/><line style="stroke:#181818;stroke-width:1.0;" x1="1855" x2="1896" y1="1110.8203" y2="1110.8203"/><polygon fill="#181818" points="1865,1106.8203,1855,1110.8203,1865,1114.8203,1861,1110.8203" style="stroke:#181818;stroke-width:1.0;"/><text fill="#000000" font-family="sans-serif" font-size="13" lengthAdjust="spacing" textLength="130" x="1861" y="1092.9639">Render email template</text><polygon fill="#181818" points="2020.5,1137.1719,2030.5,1141.1719,2020.5,1145.1719,2024.5,1141.1719" style="stroke:#181818;stroke-width:1.0;"/><line style="stroke:#181818;stroke-width:1.0;" x1="1854" x2="2026.5" y1="1141.1719" y2="1141.1719"/><text fill="#000000" font-family="sans-serif" font-size="13" lengthAdjust="spacing" textLength="119" x="1861" y="1136.3154">Send invitation email</text><polygon fill="#181818" points="2137.5,1167.5234,2147.5,1171.5234,2137.5,1175.5234,2141.5,1171.5234" style="stroke:#181818;stroke-width:1.0;"/><line style="stroke:#181818;stroke-width:1.0;" x1="2032.5" x2="2143.5" y1="1171.5234" y2="1171.5234"/><text fill="#000000" font-family="sans-serif" font-size="13" lengthAdjust="spacing" textLength="93" x="2039.5" y="1166.667">SMTP message</text><polygon fill="#181818" points="2297.5,1197.875,2307.5,1201.875,2297.5,1205.875,2301.5,1201.875" style="stroke:#181818;stroke-width:1.0;"/><line style="stroke:#181818;stroke-width:1.0;stroke-dasharray:2.0,2.0;" x1="2149.5" x2="2303.5" y1="1201.875" y2="1201.875"/><text fill="#000000" font-family="sans-serif" font-size="13" lengthAdjust="spacing" textLength="136" x="2156.5" y="1197.0186">Invitation email with link</text><polygon fill="#181818" points="1360,1228.2266,1350,1232.2266,1360,1236.2266,1356,1232.2266" style="stroke:#181818;stroke-width:1.0;"/><line style="stroke:#181818;stroke-width:1.0;" x1="1354" x2="1498" y1="1232.2266" y2="1232.2266"/><text fill="#000000" font-family="sans-serif" font-size="13" lengthAdjust="spacing" textLength="27" x="1366" y="1227.3701">ACK</text><rect fill="#EEEEEE" height="3" style="stroke:#EEEEEE;stroke-width:1.0;" width="2659.5" x="0" y="1261.4023"/><line style="stroke:#000000;stroke-width:1.0;" x1="0" x2="2659.5" y1="1261.4023" y2="1261.4023"/><line style="stroke:#000000;stroke-width:1.0;" x1="0" x2="2659.5" y1="1264.4023" y2="1264.4023"/><rect fill="#EEEEEE" height="24.3516" style="stroke:#000000;stroke-width:2.0;" width="154" x="1252.75" y="1250.2266"/><text fill="#000000" font-family="sans-serif" font-size="13" font-weight="bold" lengthAdjust="spacing" textLength="136" x="1258.75" y="1267.7217">Invitation acceptance</text><polygon fill="#181818" points="287,1302.9297,277,1306.9297,287,1310.9297,283,1306.9297" style="stroke:#181818;stroke-width:1.0;"/><line style="stroke:#181818;stroke-width:1.0;" x1="281" x2="2308.5" y1="1306.9297" y2="1306.9297"/><text fill="#000000" font-family="sans-serif" font-size="13" lengthAdjust="spacing" textLength="255" x="293" y="1302.0732">POST /api/student-invitations/{token}/accept</text><polygon fill="#181818" points="2440.5,1333.2813,2450.5,1337.2813,2440.5,1341.2813,2444.5,1337.2813" style="stroke:#181818;stroke-width:1.0;"/><line style="stroke:#181818;stroke-width:1.0;" x1="276" x2="2446.5" y1="1337.2813" y2="1337.2813"/><text fill="#000000" font-family="sans-serif" font-size="13" lengthAdjust="spacing" textLength="195" x="283" y="1332.4248">AcceptStudentInvitationCommand</text><line style="stroke:#181818;stroke-width:1.0;" x1="2452.5" x2="2494.5" y1="1367.6328" y2="1367.6328"/><line style="stroke:#181818;stroke-width:1.0;" x1="2494.5" x2="2494.5" y1="1367.6328" y2="1380.6328"/><line style="stroke:#181818;stroke-width:1.0;" x1="2453.5" x2="2494.5" y1="1380.6328" y2="1380.6328"/><polygon fill="#181818" points="2463.5,1376.6328,2453.5,1380.6328,2463.5,1384.6328,2459.5,1380.6328" style="stroke:#181818;stroke-width:1.0;"/><text fill="#000000" font-family="sans-serif" font-size="13" lengthAdjust="spacing" textLength="90" x="2459.5" y="1362.7764">Hash raw token</text><polygon fill="#181818" points="733,1406.9844,723,1410.9844,733,1414.9844,729,1410.9844" style="stroke:#181818;stroke-width:1.0;"/><line style="stroke:#181818;stroke-width:1.0;" x1="727" x2="2451.5" y1="1410.9844" y2="1410.9844"/><text fill="#000000" font-family="sans-serif" font-size="13" lengthAdjust="spacing" textLength="211" x="739" y="1406.1279">Find StudentInvitation by TokenHash</text><line style="stroke:#181818;stroke-width:1.0;" x1="2452.5" x2="2494.5" y1="1441.3359" y2="1441.3359"/><line style="stroke:#181818;stroke-width:1.0;" x1="2494.5" x2="2494.5" y1="1441.3359" y2="1454.3359"/><line style="stroke:#181818;stroke-width:1.0;" x1="2453.5" x2="2494.5" y1="1454.3359" y2="1454.3359"/><polygon fill="#181818" points="2463.5,1450.3359,2453.5,1454.3359,2463.5,1458.3359,2459.5,1454.3359" style="stroke:#181818;stroke-width:1.0;"/><text fill="#000000" font-family="sans-serif" font-size="13" lengthAdjust="spacing" textLength="193" x="2459.5" y="1436.4795">Validate ValidUntilUtc and Status</text><path d="M248.5,1469.3359 L309.5,1469.3359 L309.5,1477.6875 L299.5,1487.6875 L248.5,1487.6875 L248.5,1469.3359 " fill="#EEEEEE" style="stroke:#000000;stroke-width:1.5;"/><rect fill="none" height="306.3516" style="stroke:#000000;stroke-width:1.5;" width="2358" x="248.5" y="1469.3359"/><text fill="#000000" font-family="sans-serif" font-size="13" font-weight="bold" lengthAdjust="spacing" textLength="16" x="263.5" y="1483.8311">alt</text><text fill="#000000" font-family="sans-serif" font-size="11" font-weight="bold" lengthAdjust="spacing" textLength="300" x="324.5" y="1482.7549">[Invitation expired, superseded, accepted, or rejected]</text><polygon fill="#181818" points="287,1506.0391,277,1510.0391,287,1514.0391,283,1510.0391" style="stroke:#181818;stroke-width:1.0;"/><line style="stroke:#181818;stroke-width:1.0;stroke-dasharray:2.0,2.0;" x1="281" x2="2451.5" y1="1510.0391" y2="1510.0391"/><text fill="#000000" font-family="sans-serif" font-size="13" lengthAdjust="spacing" textLength="196" x="293" y="1505.1826">409 StudentInvitations.Unavailable</text><polygon fill="#181818" points="2297.5,1536.3906,2307.5,1540.3906,2297.5,1544.3906,2301.5,1540.3906" style="stroke:#181818;stroke-width:1.0;"/><line style="stroke:#181818;stroke-width:1.0;stroke-dasharray:2.0,2.0;" x1="276" x2="2303.5" y1="1540.3906" y2="1540.3906"/><text fill="#000000" font-family="sans-serif" font-size="13" lengthAdjust="spacing" textLength="68" x="283" y="1535.5342">409 Conflict</text><line style="stroke:#000000;stroke-width:1.0;stroke-dasharray:2.0,2.0;" x1="248.5" x2="2606.5" y1="1549.3906" y2="1549.3906"/><text fill="#000000" font-family="sans-serif" font-size="11" font-weight="bold" lengthAdjust="spacing" textLength="108" x="253.5" y="1560.8096">[Invitation available]</text><polygon fill="#181818" points="733,1582.5781,723,1586.5781,733,1590.5781,729,1586.5781" style="stroke:#181818;stroke-width:1.0;"/><line style="stroke:#181818;stroke-width:1.0;" x1="727" x2="2451.5" y1="1586.5781" y2="1586.5781"/><text fill="#000000" font-family="sans-serif" font-size="13" lengthAdjust="spacing" textLength="176" x="739" y="1581.7217">Resolve authenticated Student</text><line style="stroke:#181818;stroke-width:1.0;" x1="2452.5" x2="2494.5" y1="1616.9297" y2="1616.9297"/><line style="stroke:#181818;stroke-width:1.0;" x1="2494.5" x2="2494.5" y1="1616.9297" y2="1629.9297"/><line style="stroke:#181818;stroke-width:1.0;" x1="2453.5" x2="2494.5" y1="1629.9297" y2="1629.9297"/><polygon fill="#181818" points="2463.5,1625.9297,2453.5,1629.9297,2463.5,1633.9297,2459.5,1629.9297" style="stroke:#181818;stroke-width:1.0;"/><text fill="#000000" font-family="sans-serif" font-size="13" lengthAdjust="spacing" textLength="135" x="2459.5" y="1612.0732">Validate recipient email</text><polygon fill="#181818" points="733,1656.2813,723,1660.2813,733,1664.2813,729,1660.2813" style="stroke:#181818;stroke-width:1.0;"/><line style="stroke:#181818;stroke-width:1.0;" x1="727" x2="2451.5" y1="1660.2813" y2="1660.2813"/><text fill="#000000" font-family="sans-serif" font-size="13" lengthAdjust="spacing" textLength="243" x="739" y="1655.4248">Check active agreement for Tutor+Student</text><polygon fill="#181818" points="733,1702.9844,723,1706.9844,733,1710.9844,729,1706.9844" style="stroke:#181818;stroke-width:1.0;"/><line style="stroke:#181818;stroke-width:1.0;" x1="727" x2="2451.5" y1="1706.9844" y2="1706.9844"/><text fill="#000000" font-family="sans-serif" font-size="13" lengthAdjust="spacing" textLength="151" x="739" y="1685.7764">Create TutoringAgreement</text><text fill="#000000" font-family="sans-serif" font-size="13" lengthAdjust="spacing" textLength="154" x="739" y="1702.1279">+ mark invitation Accepted</text><polygon fill="#181818" points="287,1733.3359,277,1737.3359,287,1741.3359,283,1737.3359" style="stroke:#181818;stroke-width:1.0;"/><line style="stroke:#181818;stroke-width:1.0;stroke-dasharray:2.0,2.0;" x1="281" x2="2451.5" y1="1737.3359" y2="1737.3359"/><text fill="#000000" font-family="sans-serif" font-size="13" lengthAdjust="spacing" textLength="73" x="293" y="1732.4795">AgreementId</text><polygon fill="#181818" points="2297.5,1763.6875,2307.5,1767.6875,2297.5,1771.6875,2301.5,1767.6875" style="stroke:#181818;stroke-width:1.0;"/><line style="stroke:#181818;stroke-width:1.0;stroke-dasharray:2.0,2.0;" x1="276" x2="2303.5" y1="1767.6875" y2="1767.6875"/><text fill="#000000" font-family="sans-serif" font-size="13" lengthAdjust="spacing" textLength="44" x="283" y="1762.8311">200 OK</text><!--SRC=[hLPBR-Cs4BxpLmpsj44QEorwgO4KS9sq6soCE7RSKo-qD8xOK9IMf9mr5ltl7LAY9Tco8mFnmQR9cM_U3okiH1Z7CIni4QEoiDh2lTe8owt855p1Sle02_nMe8eGRWL_qJnbB14nmZhBx2hxpXYFRARXkQ1lbdDjHIHoJbZZsNthlmV6Ij8NhcA9ciNSyXKt15uTMYoFXHCnqrc4nkp1p_bg9UpqswnOIM4ImY8r2mptJotYkvGBEScKALBKXozt6rBfLfYSsoZP8wWKhjqoqSWjnfuncD5YI6q-fRUzwq-BwVCCXk2USc4_0JVXNBcmajHsOXHXRWzq27APTpjS_UwyFOBPu-8PXZmNG-lkpJ35eIbvhyIEsJ0YTZnT4HcrRoTPcj83Orsq3YF4RGIJ1ADN85F41e4o1J5rARKEoN4vHp9AE0jxe3raF8PSuqPaXO7AvyE5GsnOye_gWWyeS7NKo5b0hlHjUkUOSjr8KwvVQqKRE73tFHSQJ_Yk6_0lLAZ9Mj3y3MpsYWekuTdzVk4cEHEiTDnX4dyGJ1MNUsMHMeExyQNK9y0BJcx7qaNja5w2mhT3MV1vvmJ8bDnUECgoGqofFV0NXC-rouI2d6ybPT45OofpxXGlYOLiNRUQ4qa0NAEBga6zeH2wB4k4eJJRmggma5BGIUqgmWEgmmIFQ4ssWx26jJNryAWDONhpmIR834_H-sMISFM2PcosAeA8IpbWI33EZ6Ek3IsWbhpKik6GYxBeYSnNomX-kRw6nw-KMhNL88LwPUpc1hpaH6VAUGTTfuCO9Vc8xB-vOMolCNUKRg7oyfNCQvdUhiuze15qjAj1L6RPOFDpf-I3IK3bNHu1VJOU43IudchYTqHte7GP4D2YJAs5Jbtzd_IMxn_jv9W5putjqaOiI7voZAr9DeBRCYhD89Osj-XsZ7k3ZlYhSvDhZyWnznc28oWFeUuOwyFL7_sFGiXcfu3b_E63HSofoeY-J7YBQIw9fh-CtU2dxkRgjHaKHyjg2aTVJNyYTfj1MfL7TUkJgvBShEfAkJTXawfS3o9TP_PuyjMNSxCT-OM2kttE5N9O_0utY8vg6FxmhUI_OGaIreZJEyhesFjkjJZDtqU2dmcxLjS3i2w_FuMAExesBSBroFq03V_cKiHkXFh3KbaXgRJzS5WGQM5eZvQs5UTojlm4fd230cDtBXtlJjH6DFwB4VrXG9_tL0m1_lNwjqDppM2f-8RIYAyabd3LiDXbeEEZ95jB4Lc6ajftCwdQl6UuVuucasvVB6W0abSYLrYxJRWVMc_Vwx0XLkLuhhBlRhX1x_EHo_tAemZrCWxORiLnkqQpbOoh73Whx3l4-xWxlkKwuDOCzZy0]--></g></svg>