<?xml version="1.0" encoding="us-ascii" standalone="no"?><svg xmlns="http://www.w3.org/2000/svg" xmlns:xlink="http://www.w3.org/1999/xlink" contentStyleType="text/css" height="861px" preserveAspectRatio="none" style="width:1695px;height:861px;background:#FFFFFF;" version="1.1" viewBox="0 0 1695 861" width="1695px" zoomAndPan="magnify"><defs/><g><text fill="#000000" font-family="sans-serif" font-size="14" font-weight="bold" lengthAdjust="spacing" textLength="410" x="643.75" y="29.5332">US-019 - View tutoring agreements with overdue payments</text><rect fill="#FFFFFF" height="192.8125" style="stroke:#181818;stroke-width:1.0;" width="10" x="1191" y="493.5938"/><rect fill="none" height="593.5391" style="stroke:#000000;stroke-width:1.5;" width="1678.5" x="10" y="168.5703"/><rect fill="none" height="395.1094" style="stroke:#000000;stroke-width:1.5;" width="1658.5" x="20" y="360"/><line style="stroke:#181818;stroke-width:0.5;stroke-dasharray:5.0,5.0;" x1="50" x2="50" y1="121.2188" y2="779.1094"/><line style="stroke:#181818;stroke-width:0.5;stroke-dasharray:5.0,5.0;" x1="328.5" x2="328.5" y1="121.2188" y2="779.1094"/><line style="stroke:#181818;stroke-width:0.5;stroke-dasharray:5.0,5.0;" x1="576.5" x2="576.5" y1="121.2188" y2="779.1094"/><line style="stroke:#181818;stroke-width:0.5;stroke-dasharray:5.0,5.0;" x1="820" x2="820" y1="121.2188" y2="779.1094"/><line style="stroke:#181818;stroke-width:0.5;stroke-dasharray:5.0,5.0;" x1="1196" x2="1196" y1="121.2188" y2="779.1094"/><line style="stroke:#181818;stroke-width:0.5;stroke-dasharray:5.0,5.0;" x1="1550.5" x2="1550.5" y1="121.2188" y2="779.1094"/><text fill="#000000" font-family="sans-serif" font-size="14" lengthAdjust="spacing" textLength="34" x="30" y="118.1426">Tutor</text><ellipse cx="50" cy="52.1094" fill="#E2E2F0" rx="8" ry="8" style="stroke:#181818;stroke-width:0.5;"/><path d="M50,60.1094 L50,87.1094 M37,68.1094 L63,68.1094 M50,87.1094 L37,102.1094 M50,87.1094 L63,102.1094 " fill="none" style="stroke:#181818;stroke-width:0.5;"/><text fill="#000000" font-family="sans-serif" font-size="14" lengthAdjust="spacing" textLength="34" x="30" y="792.6426">Tutor</text><ellipse cx="50" cy="804.2188" fill="#E2E2F0" rx="8" ry="8" style="stroke:#181818;stroke-width:0.5;"/><path d="M50,812.2188 L50,839.2188 M37,820.2188 L63,820.2188 M50,839.2188 L37,854.2188 M50,839.2188 L63,854.2188 " fill="none" style="stroke:#181818;stroke-width:0.5;"/><rect fill="#E2E2F0" height="31.6094" rx="2.5" ry="2.5" style="stroke:#181818;stroke-width:0.5;" width="193" x="232.5" y="88.6094"/><text fill="#000000" font-family="sans-serif" font-size="14" lengthAdjust="spacing" textLength="179" x="239.5" y="110.1426">ASP.NET Core Authorization</text><rect fill="#E2E2F0" height="31.6094" rx="2.5" ry="2.5" style="stroke:#181818;stroke-width:0.5;" width="193" x="232.5" y="778.1094"/><text fill="#000000" font-family="sans-serif" font-size="14" lengthAdjust="spacing" textLength="179" x="239.5" y="799.6426">ASP.NET Core Authorization</text><rect fill="#E2E2F0" height="31.6094" rx="2.5" ry="2.5" style="stroke:#181818;stroke-width:0.5;" width="283" x="435.5" y="88.6094"/><text fill="#000000" font-family="sans-serif" font-size="14" lengthAdjust="spacing" textLength="269" x="442.5" y="110.1426">GetOverdueTutoringAgreementsController</text><rect fill="#E2E2F0" height="31.6094" rx="2.5" ry="2.5" style="stroke:#181818;stroke-width:0.5;" width="283" x="435.5" y="778.1094"/><text fill="#000000" font-family="sans-serif" font-size="14" lengthAdjust="spacing" textLength="269" x="442.5" y="799.6426">GetOverdueTutoringAgreementsController</text><rect fill="#E2E2F0" height="31.6094" rx="2.5" ry="2.5" style="stroke:#181818;stroke-width:0.5;" width="66" x="787" y="88.6094"/><text fill="#000000" font-family="sans-serif" font-size="14" lengthAdjust="spacing" textLength="52" x="794" y="110.1426">MediatR</text><rect fill="#E2E2F0" height="31.6094" rx="2.5" ry="2.5" style="stroke:#181818;stroke-width:0.5;" width="66" x="787" y="778.1094"/><text fill="#000000" font-family="sans-serif" font-size="14" lengthAdjust="spacing" textLength="52" x="794" y="799.6426">MediatR</text><rect fill="#E2E2F0" height="31.6094" rx="2.5" ry="2.5" style="stroke:#181818;stroke-width:0.5;" width="270" x="1061" y="88.6094"/><text fill="#000000" font-family="sans-serif" font-size="14" lengthAdjust="spacing" textLength="256" x="1068" y="110.1426">GetOverdueTutoringAgreementsHandler</text><rect fill="#E2E2F0" height="31.6094" rx="2.5" ry="2.5" style="stroke:#181818;stroke-width:0.5;" width="270" x="1061" y="778.1094"/><text fill="#000000" font-family="sans-serif" font-size="14" lengthAdjust="spacing" textLength="256" x="1068" y="799.6426">GetOverdueTutoringAgreementsHandler</text><text fill="#000000" font-family="sans-serif" font-size="14" lengthAdjust="spacing" textLength="205" x="1445.5" y="118.1426">TutoringDbContext / SQL Server</text><path d="M1533,67.6094 C1533,57.6094 1551,57.6094 1551,57.6094 C1551,57.6094 1569,57.6094 1569,67.6094 L1569,93.6094 C1569,103.6094 1551,103.6094 1551,103.6094 C1551,103.6094 1533,103.6094 1533,93.6094 L1533,67.6094 " fill="#E2E2F0" style="stroke:#181818;stroke-width:1.5;"/><path d="M1533,67.6094 C1533,77.6094 1551,77.6094 1551,77.6094 C1551,77.6094 1569,77.6094 1569,67.6094 " fill="none" style="stroke:#181818;stroke-width:1.5;"/><text fill="#000000" font-family="sans-serif" font-size="14" lengthAdjust="spacing" textLength="205" x="1445.5" y="792.6426">TutoringDbContext / SQL Server</text><path d="M1533,805.7188 C1533,795.7188 1551,795.7188 1551,795.7188 C1551,795.7188 1569,795.7188 1569,805.7188 L1569,831.7188 C1569,841.7188 1551,841.7188 1551,841.7188 C1551,841.7188 1533,841.7188 1533,831.7188 L1533,805.7188 " fill="#E2E2F0" style="stroke:#181818;stroke-width:1.5;"/><path d="M1533,805.7188 C1533,815.7188 1551,815.7188 1551,815.7188 C1551,815.7188 1569,815.7188 1569,805.7188 " fill="none" style="stroke:#181818;stroke-width:1.5;"/><rect fill="#FFFFFF" height="192.8125" style="stroke:#181818;stroke-width:1.0;" width="10" x="1191" y="493.5938"/><polygon fill="#181818" points="317,149.5703,327,153.5703,317,157.5703,321,153.5703" style="stroke:#181818;stroke-width:1.0;"/><line style="stroke:#181818;stroke-width:1.0;" x1="50" x2="323" y1="153.5703" y2="153.5703"/><text fill="#000000" font-family="sans-serif" font-size="13" lengthAdjust="spacing" textLength="255" x="62" y="148.7139">GET /api/tutors/tutoring-agreements/overdue</text><path d="M10,168.5703 L71,168.5703 L71,176.9219 L61,186.9219 L10,186.9219 L10,168.5703 " fill="#EEEEEE" style="stroke:#000000;stroke-width:1.5;"/><rect fill="none" height="593.5391" style="stroke:#000000;stroke-width:1.5;" width="1678.5" x="10" y="168.5703"/><text fill="#000000" font-family="sans-serif" font-size="13" font-weight="bold" lengthAdjust="spacing" textLength="16" x="25" y="183.0654">alt</text><text fill="#000000" font-family="sans-serif" font-size="11" font-weight="bold" lengthAdjust="spacing" textLength="97" x="86" y="181.9893">[unauthenticated]</text><polygon fill="#181818" points="61,205.2734,51,209.2734,61,213.2734,57,209.2734" style="stroke:#181818;stroke-width:1.0;"/><line style="stroke:#181818;stroke-width:1.0;stroke-dasharray:2.0,2.0;" x1="55" x2="328" y1="209.2734" y2="209.2734"/><text fill="#000000" font-family="sans-serif" font-size="13" lengthAdjust="spacing" textLength="101" x="139" y="204.417">401 Unauthorized</text><line style="stroke:#000000;stroke-width:1.0;stroke-dasharray:2.0,2.0;" x1="10" x2="1688.5" y1="218.2734" y2="218.2734"/><text fill="#000000" font-family="sans-serif" font-size="11" font-weight="bold" lengthAdjust="spacing" textLength="186" x="15" y="229.6924">[authenticated without Tutor role]</text><polygon fill="#181818" points="61,251.4609,51,255.4609,61,259.4609,57,255.4609" style="stroke:#181818;stroke-width:1.0;"/><line style="stroke:#181818;stroke-width:1.0;stroke-dasharray:2.0,2.0;" x1="55" x2="328" y1="255.4609" y2="255.4609"/><text fill="#000000" font-family="sans-serif" font-size="13" lengthAdjust="spacing" textLength="82" x="148.5" y="250.6045">403 Forbidden</text><line style="stroke:#000000;stroke-width:1.0;stroke-dasharray:2.0,2.0;" x1="10" x2="1688.5" y1="264.4609" y2="264.4609"/><text fill="#000000" font-family="sans-serif" font-size="11" font-weight="bold" lengthAdjust="spacing" textLength="116" x="15" y="275.8799">[authenticated Tutor]</text><polygon fill="#181818" points="565,297.6484,575,301.6484,565,305.6484,569,301.6484" style="stroke:#181818;stroke-width:1.0;"/><line style="stroke:#181818;stroke-width:1.0;" x1="329" x2="571" y1="301.6484" y2="301.6484"/><text fill="#000000" font-family="sans-serif" font-size="13" lengthAdjust="spacing" textLength="145" x="380.5" y="296.792">Route authorized request</text><line style="stroke:#181818;stroke-width:1.0;" x1="577" x2="619" y1="332" y2="332"/><line style="stroke:#181818;stroke-width:1.0;" x1="619" x2="619" y1="332" y2="345"/><line style="stroke:#181818;stroke-width:1.0;" x1="578" x2="619" y1="345" y2="345"/><polygon fill="#181818" points="588,341,578,345,588,349,584,345" style="stroke:#181818;stroke-width:1.0;"/><text fill="#000000" font-family="sans-serif" font-size="13" lengthAdjust="spacing" textLength="205" x="584" y="327.1436">Read sub and parse UserAccountId</text><path d="M20,360 L81,360 L81,368.3516 L71,378.3516 L20,378.3516 L20,360 " fill="#EEEEEE" style="stroke:#000000;stroke-width:1.5;"/><rect fill="none" height="395.1094" style="stroke:#000000;stroke-width:1.5;" width="1658.5" x="20" y="360"/><text fill="#000000" font-family="sans-serif" font-size="13" font-weight="bold" lengthAdjust="spacing" textLength="16" x="35" y="374.4951">alt</text><text fill="#000000" font-family="sans-serif" font-size="11" font-weight="bold" lengthAdjust="spacing" textLength="130" x="96" y="373.4189">[missing or invalid sub]</text><polygon fill="#181818" points="61,396.7031,51,400.7031,61,404.7031,57,400.7031" style="stroke:#181818;stroke-width:1.0;"/><line style="stroke:#181818;stroke-width:1.0;stroke-dasharray:2.0,2.0;" x1="55" x2="576" y1="400.7031" y2="400.7031"/><text fill="#000000" font-family="sans-serif" font-size="13" lengthAdjust="spacing" textLength="101" x="263" y="395.8467">401 Unauthorized</text><line style="stroke:#000000;stroke-width:1.0;stroke-dasharray:2.0,2.0;" x1="20" x2="1678.5" y1="409.7031" y2="409.7031"/><text fill="#000000" font-family="sans-serif" font-size="11" font-weight="bold" lengthAdjust="spacing" textLength="117" x="25" y="421.1221">[valid UserAccountId]</text><polygon fill="#181818" points="808,459.2422,818,463.2422,808,467.2422,812,463.2422" style="stroke:#181818;stroke-width:1.0;"/><line style="stroke:#181818;stroke-width:1.0;" x1="577" x2="814" y1="463.2422" y2="463.2422"/><text fill="#000000" font-family="sans-serif" font-size="13" lengthAdjust="spacing" textLength="219" x="589" y="442.0342">GetOverdueTutoringAgreementsQuery</text><text fill="#000000" font-family="sans-serif" font-size="13" lengthAdjust="spacing" textLength="203" x="597" y="458.3857">(UserAccountId, RequestMetadata)</text><polygon fill="#181818" points="1179,489.5938,1189,493.5938,1179,497.5938,1183,493.5938" style="stroke:#181818;stroke-width:1.0;"/><line style="stroke:#181818;stroke-width:1.0;" x1="820" x2="1185" y1="493.5938" y2="493.5938"/><text fill="#000000" font-family="sans-serif" font-size="13" lengthAdjust="spacing" textLength="194" x="908.5" y="488.7373">Handle(query, CancellationToken)</text><polygon fill="#181818" points="1539,585.3516,1549,589.3516,1539,593.3516,1543,589.3516" style="stroke:#181818;stroke-width:1.0;"/><line style="stroke:#181818;stroke-width:1.0;" x1="1201" x2="1545" y1="589.3516" y2="589.3516"/><text fill="#000000" font-family="sans-serif" font-size="13" lengthAdjust="spacing" textLength="194" x="1279" y="519.0889">Execute one AsNoTracking query</text><text fill="#000000" font-family="sans-serif" font-size="13" lengthAdjust="spacing" textLength="253" x="1249.5" y="535.4404">Filter active charges with PaymentId == null</text><text fill="#000000" font-family="sans-serif" font-size="13" lengthAdjust="spacing" textLength="287" x="1232.5" y="551.792">Aggregate by BillingAccount.TutoringAgreementId</text><text fill="#000000" font-family="sans-serif" font-size="13" lengthAdjust="spacing" textLength="270" x="1241" y="568.1436">Join agreements and filter Tutor.UserAccountId</text><text fill="#000000" font-family="sans-serif" font-size="13" lengthAdjust="spacing" textLength="326" x="1213" y="584.4951">Project rows ordered by OutstandingAmount descending</text><path d="M1078,602.3516 L1078,628.3516 L1668,628.3516 L1668,612.3516 L1658,602.3516 L1078,602.3516 " fill="#FEFFDD" style="stroke:#181818;stroke-width:0.5;"/><path d="M1658,602.3516 L1658,612.3516 L1668,612.3516 L1658,602.3516 " fill="#FEFFDD" style="stroke:#181818;stroke-width:0.5;"/><text fill="#000000" font-family="sans-serif" font-size="13" lengthAdjust="spacing" textLength="404" x="1166.75" y="620.8467">No full aggregate loading, N+1 queries, or per-agreement US-018 calls</text><polygon fill="#181818" points="1212,652.0547,1202,656.0547,1212,660.0547,1208,656.0547" style="stroke:#181818;stroke-width:1.0;"/><line style="stroke:#181818;stroke-width:1.0;stroke-dasharray:2.0,2.0;" x1="1206" x2="1550" y1="656.0547" y2="656.0547"/><text fill="#000000" font-family="sans-serif" font-size="13" lengthAdjust="spacing" textLength="185" x="1283.5" y="651.1982">Agreement rows or empty result</text><polygon fill="#181818" points="831,682.4063,821,686.4063,831,690.4063,827,686.4063" style="stroke:#181818;stroke-width:1.0;"/><line style="stroke:#181818;stroke-width:1.0;stroke-dasharray:2.0,2.0;" x1="825" x2="1195" y1="686.4063" y2="686.4063"/><text fill="#000000" font-family="sans-serif" font-size="13" lengthAdjust="spacing" textLength="347" x="834.5" y="681.5498">IReadOnlyCollection&lt;OverdueTutoringAgreementResponse&gt;</text><polygon fill="#181818" points="588,712.7578,578,716.7578,588,720.7578,584,716.7578" style="stroke:#181818;stroke-width:1.0;"/><line style="stroke:#181818;stroke-width:1.0;stroke-dasharray:2.0,2.0;" x1="582" x2="819" y1="716.7578" y2="716.7578"/><text fill="#000000" font-family="sans-serif" font-size="13" lengthAdjust="spacing" textLength="57" x="670" y="711.9014">Collection</text><polygon fill="#181818" points="61,743.1094,51,747.1094,61,751.1094,57,747.1094" style="stroke:#181818;stroke-width:1.0;"/><line style="stroke:#181818;stroke-width:1.0;stroke-dasharray:2.0,2.0;" x1="55" x2="576" y1="747.1094" y2="747.1094"/><text fill="#000000" font-family="sans-serif" font-size="13" lengthAdjust="spacing" textLength="257" x="185" y="742.2529">200 OK (empty collection when no matches)</text><!--SRC=[ZLLDSzem4BtxL-pab4uXaBQ7bccOSI1fQHj80kc9YonlZ1eX4Kc6q5_VbVm1pcUPOGPRk-_jldqhx9rGAsRO4XB6xpAZSvKEjDG6DWlXCBBrkSNx71N72xIMPHXBaIdWg1oQlIY3TgMLhQ9EKUfDR8pUW3CvHf4JJYBSJDlTuo_GXjy2wIHtsWYL0SiCuf8WBMo4Mu1UeqbpX1NRXhTHn3Y5mimdH4Je11ShfXmSnDFBe_7P30RQ8CIvMn3YN-Q4LWV0RFDDC_CRkad1ColhYEio1bevewL44r1sZms82qm5SzV_3_kTgRJ2B7z7ANCiOHRXe8eV9fuF7nnqO7hr2wPercNIC8cY40RjVhEt7dmZ5Jfi9Jf1Ljkfr6tlrEsKmaPCEiWL8m1wBJXpc4P0dmOaj8aaiFNWK_SORaA2FwPeb5Ho0o2CJkUkI07I2z_2_0ZdsYGYJL4z1rYC-ncC_jv4Ud1Df4LgKHjvaHnhNSZS1Jv9GvQ2pHEWGP3J3D7VM3GnvxGBRfH68TyhjHJMUfjILqAjcHGXBnm_fdX5CHyQcYmGcbpFOVKhWz5iNp7LLOvcErU73S0MjHT4k437lCNUrHGbgCSlFTWhVnpUUwWM31YjkvH1x9c-GxLBfZqKQnfERT_ge7psgCEa1sSFoFrKjAAjj6CzCtJBU0tlYshFXQJxeu13u0jcCYoN_x9O-b4A9oUWSYddAiwesypJ9biu5L9w0OfMZvu8CahdweSMQlzMyIE-BIX3_553hBcwDFeFSaUctLWQSug6R4HSaznPHyaUV-c38KLBTvz_KRUkj6-KnbE9q0eIZ3NSKlLKHbMyrCmdjc3y_ZW88T2slAjMQ7PRMboIdu4pAMrDCao2kUg9rUrMDGCkLsxhx-5SkgTZsNVJo5j_ekHsu9t6_PY_lcIlw_9UxzUGARveWjfQZrPjn_F6qdpeTc7o4mwBNdYTHdzAg4XeM3B75sWBGz8S8l_z1m00]--></g></svg>