<svg xmlns="http://www.w3.org/2000/svg" xmlns:xlink="http://www.w3.org/1999/xlink" version="1.1" data-diagram-type="SEQUENCE" style="width:1016px;height:585px;background:#FFFFFF;" width="1016px" height="585px" viewBox="0 0 1016 585" zoomAndPan="magnify" preserveAspectRatio="none" contentStyleType="text/css"><?plantuml 1.2026.8?><defs/><g font-family="sans-serif" lengthAdjust="spacing"><g class="title" data-source-line="2"><text x="402.3" y="29.533" fill="#000" font-size="14" textLength="210.041" font-weight="700">US-007 - Update student details</text></g><rect x="13.338" y="302.977" width="941.383" height="169.594" fill="none" style="stroke:#000;stroke-width:1.5;"/><g><title>Tutor</title><rect x="25.838" y="126.219" width="8" height="370.352" fill="#000" fill-opacity="0"/><line x1="29.338" y1="126.219" x2="29.338" y2="496.57" style="stroke:#181818;stroke-width:0.5;stroke-dasharray:5,5;"/></g><g><title>UpdateStudentDetailsController</title><rect x="296.26" y="126.219" width="8" height="370.352" fill="#000" fill-opacity="0"/><line x1="299.76" y1="126.219" x2="299.76" y2="496.57" style="stroke:#181818;stroke-width:0.5;stroke-dasharray:5,5;"/></g><g><title>UpdateStudentDetailsHandler</title><rect x="511.318" y="126.219" width="8" height="370.352" fill="#000" fill-opacity="0"/><line x1="514.818" y1="126.219" x2="514.818" y2="496.57" style="stroke:#181818;stroke-width:0.5;stroke-dasharray:5,5;"/></g><g><title>TutoringDbContext</title><rect x="796.549" y="126.219" width="8" height="370.352" fill="#000" fill-opacity="0"/><line x1="800.049" y1="126.219" x2="800.049" y2="496.57" style="stroke:#181818;stroke-width:0.5;stroke-dasharray:5,5;"/></g><g><title>TutoringAgreement</title><rect x="935.221" y="126.219" width="8" height="370.352" fill="#000" fill-opacity="0"/><line x1="938.721" y1="126.219" x2="938.721" y2="496.57" style="stroke:#181818;stroke-width:0.5;stroke-dasharray:5,5;"/></g><text x="10" y="123.143" fill="#000" font-size="14" textLength="32.676">Tutor</text><ellipse cx="29.338" cy="57.109" rx="8" ry="8" fill="#E2E2F0" style="stroke:#181818;stroke-width:0.5;"/><path d="M29.338,65.109 L29.338,92.109 M16.338,73.109 L42.338,73.109 M29.338,92.109 L16.338,107.109 M29.338,92.109 L42.338,107.109" style="stroke:#181818;stroke-width:0.5;" fill="none"/><rect x="194.316" y="93.609" width="210.889" height="31.609" fill="#E2E2F0" style="stroke:#181818;stroke-width:0.5;" rx="2.5" ry="2.5"/><text x="201.316" y="115.143" fill="#000" font-size="14" textLength="196.889">UpdateStudentDetailsController</text><rect x="415.205" y="93.609" width="199.227" height="31.609" fill="#E2E2F0" style="stroke:#181818;stroke-width:0.5;" rx="2.5" ry="2.5"/><text x="422.205" y="115.143" fill="#000" font-size="14" textLength="185.227">UpdateStudentDetailsHandler</text><text x="738.298" y="123.143" fill="#000" font-size="14" textLength="117.503">TutoringDbContext</text><path d="M782.049,72.609 C782.049,62.609 800.049,62.609 800.049,62.609 C800.049,62.609 818.049,62.609 818.049,72.609 L818.049,98.609 C818.049,108.609 800.049,108.609 800.049,108.609 C800.049,108.609 782.049,108.609 782.049,98.609 L782.049,72.609" style="stroke:#181818;stroke-width:0.5;" fill="#E2E2F0"/><path d="M782.049,72.609 C782.049,82.609 800.049,82.609 800.049,82.609 C800.049,82.609 818.049,82.609 818.049,72.609" style="stroke:#181818;stroke-width:0.5;" fill="none"/><rect x="871.801" y="93.609" width="133.841" height="31.609" fill="#E2E2F0" style="stroke:#181818;stroke-width:0.5;" rx="2.5" ry="2.5"/><text x="878.801" y="115.143" fill="#000" font-size="14" textLength="119.841">TutoringAgreement</text><text x="10" y="511.104" fill="#000" font-size="14" textLength="32.676">Tutor</text><ellipse cx="29.338" cy="522.68" rx="8" ry="8" fill="#E2E2F0" style="stroke:#181818;stroke-width:0.5;"/><path d="M29.338,530.68 L29.338,557.68 M16.338,538.68 L42.338,538.68 M29.338,557.68 L16.338,572.68 M29.338,557.68 L42.338,572.68" style="stroke:#181818;stroke-width:0.5;" fill="none"/><rect x="194.316" y="496.57" width="210.889" height="31.609" fill="#E2E2F0" style="stroke:#181818;stroke-width:0.5;" rx="2.5" ry="2.5"/><text x="201.316" y="518.104" fill="#000" font-size="14" textLength="196.889">UpdateStudentDetailsController</text><rect x="415.205" y="496.57" width="199.227" height="31.609" fill="#E2E2F0" style="stroke:#181818;stroke-width:0.5;" rx="2.5" ry="2.5"/><text x="422.205" y="518.104" fill="#000" font-size="14" textLength="185.227">UpdateStudentDetailsHandler</text><text x="738.298" y="511.104" fill="#000" font-size="14" textLength="117.503">TutoringDbContext</text><path d="M782.049,524.18 C782.049,514.18 800.049,514.18 800.049,514.18 C800.049,514.18 818.049,514.18 818.049,524.18 L818.049,550.18 C818.049,560.18 800.049,560.18 800.049,560.18 C800.049,560.18 782.049,560.18 782.049,550.18 L782.049,524.18" style="stroke:#181818;stroke-width:0.5;" fill="#E2E2F0"/><path d="M782.049,524.18 C782.049,534.18 800.049,534.18 800.049,534.18 C800.049,534.18 818.049,534.18 818.049,524.18" style="stroke:#181818;stroke-width:0.5;" fill="none"/><rect x="871.801" y="496.57" width="133.841" height="31.609" fill="#E2E2F0" style="stroke:#181818;stroke-width:0.5;" rx="2.5" ry="2.5"/><text x="878.801" y="518.104" fill="#000" font-size="14" textLength="119.841">TutoringAgreement</text><polygon points="287.76,152.57,297.76,156.57,287.76,160.57,291.76,156.57" fill="#181818" style="stroke:#181818;stroke-width:1;stroke-linejoin:miter;stroke-miterlimit:10;"/><line x1="29.338" y1="156.57" x2="293.76" y2="156.57" style="stroke:#181818;stroke-width:1;"/><text x="36.338" y="151.714" fill="#000" font-size="13" textLength="246.422">PUT /api/tutors/students/{studentId}/details</text><line x1="299.76" y1="186.922" x2="341.76" y2="186.922" style="stroke:#181818;stroke-width:1;"/><line x1="341.76" y1="186.922" x2="341.76" y2="199.922" style="stroke:#181818;stroke-width:1;"/><line x1="300.76" y1="199.922" x2="341.76" y2="199.922" style="stroke:#181818;stroke-width:1;"/><polygon points="310.76,195.922,300.76,199.922,310.76,203.922,306.76,199.922" fill="#181818" style="stroke:#181818;stroke-width:1;stroke-linejoin:miter;stroke-miterlimit:10;"/><text x="306.76" y="182.065" fill="#000" font-size="13" textLength="190.011">Read tutor identity from JWT sub</text><polygon points="502.818,226.273,512.818,230.273,502.818,234.273,506.818,230.273" fill="#181818" style="stroke:#181818;stroke-width:1;stroke-linejoin:miter;stroke-miterlimit:10;"/><line x1="299.76" y1="230.273" x2="508.818" y2="230.273" style="stroke:#181818;stroke-width:1;"/><text x="306.76" y="225.417" fill="#000" font-size="13" textLength="186.437">UpdateStudentDetailsCommand</text><polygon points="788.049,256.625,798.049,260.625,788.049,264.625,792.049,260.625" fill="#181818" style="stroke:#181818;stroke-width:1;stroke-linejoin:miter;stroke-miterlimit:10;"/><line x1="514.818" y1="260.625" x2="794.049" y2="260.625" style="stroke:#181818;stroke-width:1;"/><text x="521.818" y="255.769" fill="#000" font-size="13" textLength="165.458">Find Tutor by UserAccountId</text><polygon points="788.049,286.977,798.049,290.977,788.049,294.977,792.049,290.977" fill="#181818" style="stroke:#181818;stroke-width:1;stroke-linejoin:miter;stroke-miterlimit:10;"/><line x1="514.818" y1="290.977" x2="794.049" y2="290.977" style="stroke:#181818;stroke-width:1;"/><text x="521.818" y="286.12" fill="#000" font-size="13" textLength="261.231">Find active agreement by TutorId + StudentId</text><path d="M13.338,302.977 L73.509,302.977 L73.509,311.328 L63.509,321.328 L13.338,321.328 L13.338,302.977" style="stroke:#000;stroke-width:1.5;" fill="#EEE"/><rect x="13.338" y="302.977" width="941.383" height="169.594" fill="none" style="stroke:#000;stroke-width:1.5;"/><text x="28.338" y="317.472" fill="#000" font-size="13" textLength="15.171" font-weight="700">alt</text><text x="88.509" y="316.396" fill="#000" font-size="11" textLength="224.292" font-weight="700">[agreement belongs to authenticated tutor]</text><polygon points="926.721,349.68,936.721,353.68,926.721,357.68,930.721,353.68" fill="#181818" style="stroke:#181818;stroke-width:1;stroke-linejoin:miter;stroke-miterlimit:10;"/><line x1="514.818" y1="353.68" x2="932.721" y2="353.68" style="stroke:#181818;stroke-width:1;"/><text x="521.818" y="348.823" fill="#000" font-size="13" textLength="145.964">UpdateStudentDetails(...)</text><polygon points="788.049,380.031,798.049,384.031,788.049,388.031,792.049,384.031" fill="#181818" style="stroke:#181818;stroke-width:1;stroke-linejoin:miter;stroke-miterlimit:10;"/><line x1="514.818" y1="384.031" x2="794.049" y2="384.031" style="stroke:#181818;stroke-width:1;"/><text x="521.818" y="379.175" fill="#000" font-size="13" textLength="125.728">SaveChangesAsync()</text><polygon points="40.338,410.383,30.338,414.383,40.338,418.383,36.338,414.383" fill="#181818" style="stroke:#181818;stroke-width:1;stroke-linejoin:miter;stroke-miterlimit:10;"/><line x1="34.338" y1="414.383" x2="298.76" y2="414.383" style="stroke:#181818;stroke-width:1;stroke-dasharray:2,2;"/><text x="46.338" y="409.526" fill="#000" font-size="13" textLength="91.063">204 No Content</text><line x1="13.338" y1="423.383" x2="954.721" y2="423.383" style="stroke:#000;stroke-width:1;stroke-dasharray:2,2;"/><text x="18.338" y="436.802" fill="#000" font-size="11" textLength="131.404" font-weight="700">[no matching agreement]</text><polygon points="40.338,460.57,30.338,464.57,40.338,468.57,36.338,464.57" fill="#181818" style="stroke:#181818;stroke-width:1;stroke-linejoin:miter;stroke-miterlimit:10;"/><line x1="34.338" y1="464.57" x2="298.76" y2="464.57" style="stroke:#181818;stroke-width:1;stroke-dasharray:2,2;"/><text x="46.338" y="459.714" fill="#000" font-size="13" textLength="86.004">404 Not Found</text><?plantuml-src XPBHIyCm4CRVyrSSUvh8rY43eG_2M1dE1n6xulErERj0cvJcEXpY_swIjcwEeOMMXFo-BtVVbHLN15awMopkOGPP8v49B7UID8CaHbLP8R1WqyAkSr_HOCkgK0qwOD8BqfvFUdnjDBUcggYT05euRV-NFgAMesvO2qTXZfPW4kvNkanoxqaV7BWa_-qxKgko9QgTTw1-Ta8406OFPvN5y9Bj8C96HUnFRJH4OAFFORMLNz6OnqbuQVDAA25OWF8gnKTuRqqDJsyxi5r-8HrwZE5wZdNjpiK0UJx9OzWeBVjHG7w4p5AxAWhJ-Gglecvswa20Om1U5UHR2RUGZjq9hFWSeiheqW8Rm8xtlfN2LJWq9y0zPvVzf7kza-byFh-vrFW2KppGUe-w9BkoHrrCU-ey94U6QcEuMopXsOH3FqUgt3-X3TJ8nTxD-rJy7nxBuC6mSO59GUxz1W00?></g></svg>